<svg width="542" height="500" viewBox="0 0 542 500" fill="none" xmlns="http://www.w3.org/2000/svg">
<mask id="mask0" mask-type="alpha" maskUnits="userSpaceOnUse" x="0" y="0" width="542" height="500">
<rect width="542" height="500" rx="10" fill="#C4C4C4"/>
</mask>
<g mask="url(#mask0)">
<rect width="542" height="500" rx="10" fill="url(#paint0_linear)"/>
<rect x="-22" y="-17.9868" width="586" height="535.974" rx="10" fill="url(#paint1_linear)"/>
<path d="M566.194 214.36L545.114 214.36L481.009 84.5252C479.888 91.7313 478.195 98.2551 475.93 104.096C473.665 109.938 470.769 115.385 467.24 120.438C463.654 125.404 459.449 130.091 454.627 134.5C449.747 138.821 444.175 143.037 437.912 147.146L416.825 147.146L420.361 120.396C426.973 116.059 432.562 111.396 437.129 106.408C441.639 101.334 445.299 96.1952 448.107 90.9927C450.946 85.6461 452.975 80.3945 454.197 75.2381C455.361 69.9946 455.945 65.0065 455.951 60.274C455.957 55.5414 455.426 51.2233 454.358 47.3198C453.291 43.4162 451.872 40.116 450.103 37.4193L460.039 17.0435L481.159 17.0434L597.25 193.984L566.194 214.36Z" fill="#D92D88"/>
<path d="M545.109 214.36L459.924 84.525C458.803 91.7311 457.111 98.2549 454.846 104.096C452.581 109.938 449.684 115.385 446.155 120.438C442.569 125.404 438.364 130.091 433.542 134.5C428.662 138.821 423.09 143.037 416.827 147.146L399.276 120.396C405.888 116.058 411.477 111.396 416.044 106.408C420.554 101.334 424.214 96.195 427.022 90.9925C429.861 85.6459 431.891 80.3943 433.112 75.2378C434.276 69.9944 434.861 65.0063 434.867 60.2738C434.873 55.5412 434.342 51.2231 433.274 47.3195C432.206 43.4159 430.787 40.1158 429.018 37.419L460.074 17.0432L576.165 193.984L545.109 214.36Z" fill="#FF69B8"/>
<path d="M201.653 31.3459C207.671 35.367 213.18 40.0245 218.182 45.3185C223.183 50.6125 227.116 56.4766 229.982 62.9108C232.847 69.3451 234.345 76.308 234.477 83.7994C234.608 91.2909 232.796 99.2825 229.041 107.774C225.587 115.584 221.448 121.867 216.625 126.623C211.845 131.489 206.666 135 201.089 137.157C195.512 139.313 189.688 140.183 183.619 139.764C177.624 139.38 171.633 137.863 165.643 135.214C159.198 132.363 139.708 121.77 135.481 116.365C131.296 111.069 142.741 111.261 141.507 104.007C133.959 110.006 126.171 113.678 118.143 115.022C110.191 116.4 101.779 115.128 92.9085 111.205C85.4023 107.885 62.9728 95.1261 58.4847 89.6965C53.9631 84.3427 67.2364 86.752 65.4398 80.1558C63.719 73.5932 63.2981 66.6536 64.177 59.3371C65.0559 52.0206 59.5885 45.4451 62.7405 38.318C69.7152 22.5475 87.3975 11.1374 100.822 5.38052C108.431 2.11721 119.809 -8.67912 129.19 -8.77028C137.043 -4.22349 140.727 -2.27789 149.366 2.91817L137.043 30.782C130.322 29.1696 124.408 28.5028 119.299 28.7815C114.156 29.136 109.676 30.1459 105.857 31.8111C102.114 33.5099 99.025 35.6789 96.5887 38.318C94.1524 40.9572 92.2636 43.7932 90.9223 46.826C89.5139 50.0104 88.7121 53.4631 88.5169 57.1841C88.3217 60.905 88.7702 64.5027 89.8624 67.9772C90.9211 71.5275 92.6694 74.7483 95.1074 77.6395C97.5876 80.6401 100.761 82.9954 104.628 84.7056C108.267 86.3151 111.981 87.1417 115.769 87.1853C119.599 87.3382 123.226 86.7213 126.65 85.3346C130.149 83.9814 133.352 81.8627 136.259 78.9786C139.242 76.128 141.69 72.5418 143.601 68.2201L151.919 51.4358L172.09 63.1427L165.551 77.9276C163.807 81.8703 162.9 85.4578 162.831 88.6903C162.761 91.9228 163.305 94.7923 164.462 97.2986C165.587 99.8808 167.156 102.071 169.172 103.868C171.262 105.7 173.559 107.169 176.061 108.275C182.885 111.293 189.123 111.74 194.776 109.617C200.395 107.57 204.68 103.21 207.631 96.538C209.24 92.8986 209.827 89.2149 209.391 85.4866C208.997 81.8678 207.905 78.3933 206.114 75.0632C204.324 71.733 201.97 68.6523 199.052 65.8209C196.101 63.0653 192.944 60.672 189.582 58.6411L181.456 19.6238L201.653 31.3459Z" fill="url(#paint2_linear)"/>
<path d="M181.503 19.6401C187.52 23.6612 193.029 28.3187 198.031 33.6127C203.032 38.9067 206.965 44.7708 209.831 51.205C212.696 57.6393 214.194 64.6022 214.326 72.0936C214.458 79.5851 212.645 87.5767 208.89 96.0686C205.436 103.878 201.298 110.161 196.475 114.917C191.694 119.783 186.515 123.294 180.938 125.451C175.361 127.607 169.538 128.477 163.468 128.058C157.474 127.674 151.482 126.157 145.492 123.508C139.047 120.658 133.711 116.53 129.484 111.125C125.3 105.83 122.59 99.5552 121.356 92.3015C113.808 98.3002 106.02 101.972 97.9923 103.316C90.0402 104.695 81.6286 103.422 72.7577 99.4988C65.2515 96.1792 59.2544 91.8045 54.7663 86.3749C50.2447 81.0211 47.0856 75.0462 45.289 68.45C43.5683 61.8874 43.1473 54.9478 44.0262 47.6313C44.9052 40.3148 46.9206 33.093 50.0727 25.9659C57.0474 10.1953 67.2467 -0.568371 80.6708 -6.32528C94.0948 -12.0822 110.276 -12.903 129.215 -8.78763L116.892 19.0762C110.172 17.4638 104.257 16.797 99.1481 17.0757C94.0056 17.4302 89.525 18.4401 85.7064 20.1053C81.9637 21.8041 78.8742 23.9731 76.4379 26.6122C74.0016 29.2514 72.1128 32.0874 70.7715 35.1202C69.3632 38.3046 68.5614 41.7573 68.3661 45.4783C68.1709 49.1992 68.6194 52.7969 69.7116 56.2714C70.7703 59.8217 72.5186 63.0425 74.9566 65.9337C77.4368 68.9343 80.6104 71.2896 84.4772 72.9998C88.1166 74.6093 91.8302 75.4359 95.6182 75.4795C99.4485 75.6324 103.075 75.0155 106.499 73.6288C109.998 72.2756 113.201 70.1569 116.109 67.2728C119.092 64.4222 121.539 60.836 123.45 56.5143L129.989 41.7294L151.939 51.437L145.4 66.2218C143.656 70.1645 142.75 73.752 142.68 76.9845C142.61 80.217 143.154 83.0865 144.312 85.5928C145.436 88.175 147.006 90.3649 149.021 92.1626C151.112 93.9938 153.408 95.4627 155.91 96.5693C162.734 99.5872 168.972 100.035 174.625 97.9114C180.244 95.8641 184.529 91.5044 187.48 84.8322C189.09 81.1928 189.676 77.5091 189.24 73.7808C188.846 70.162 187.754 66.6875 185.964 63.3574C184.173 60.0272 181.819 56.9465 178.901 54.1151C175.95 51.3595 172.793 48.9662 169.431 46.9353L181.503 19.6401Z" fill="#004DE1"/>
<path d="M181.555 459.863C185.752 468.499 186.749 471.165 189.814 479.106C187.997 480.149 184.508 481.53 181.907 483.279C175.598 487.472 151.602 482.771 144.74 484.266C137.878 485.762 130.837 485.829 123.616 484.468C116.286 483.131 108.993 480.174 101.735 475.595C93.6717 470.508 92.5373 478.26 88.4436 472.39C84.2828 466.477 76.7193 447.271 75.6415 441.237C74.4965 435.159 74.665 429.159 76.147 423.236C77.629 417.313 79.981 411.799 83.203 406.691C87.2729 400.241 92.3847 395.339 98.5386 391.988C104.583 388.662 111.213 386.268 118.428 384.808C125.644 383.348 133.172 382.508 141.014 382.288C148.789 382.026 156.454 381.789 164.01 381.577C171.498 381.322 178.626 380.746 185.392 379.848C192.049 378.975 197.856 377.142 202.811 374.35L140.128 348.879L131.85 329.582L144.887 308.919L238.628 368.059L246.78 387.433C243.855 392.069 221.404 393.126 216.971 395.684C212.497 398.31 207.608 400.252 202.305 401.51C196.893 402.792 191.192 403.564 185.203 403.825C179.104 404.111 173.001 404.253 166.895 404.253C160.68 404.277 154.62 404.353 148.715 404.479C142.744 404.564 137.212 405.067 132.122 405.988C126.964 406.868 122.338 408.318 118.245 410.339C114.109 412.427 110.791 415.453 108.289 419.418C105.83 423.315 104.206 427.082 103.416 430.717C102.625 434.352 102.556 437.737 103.209 440.873C103.861 444.009 105.146 446.886 107.063 449.505C108.914 452.082 111.283 454.281 114.173 456.104C117.802 458.394 121.531 459.854 125.36 460.485C129.122 461.073 132.854 460.891 136.555 459.938C140.189 458.943 143.781 457.122 147.329 454.476C150.835 451.896 154.079 448.541 157.061 444.41L181.555 459.863Z" fill="#073FAB"/>
<path d="M189.82 479.176C184.647 485.589 178.961 490.879 172.762 495.047C166.453 499.24 159.867 502.084 153.005 503.58C146.144 505.075 139.102 505.142 131.882 503.781C124.552 502.444 117.258 499.487 110.001 494.908C101.937 489.821 95.8585 484.342 91.7649 478.471C87.6041 472.558 84.9848 466.585 83.9069 460.55C82.7619 454.473 82.9304 448.473 84.4125 442.55C85.8945 436.627 88.2465 431.112 91.4685 426.005C95.5383 419.554 100.65 414.653 106.804 411.301C112.848 407.975 119.478 405.581 126.694 404.121C133.909 402.661 141.438 401.821 149.28 401.602C157.055 401.34 164.72 401.102 172.275 400.89C179.763 400.635 186.891 400.059 193.658 399.161C200.315 398.288 206.121 396.456 211.077 393.664L140.116 348.895L153.152 328.232L246.893 387.372L236.273 404.205C233.348 408.842 229.669 412.439 225.237 414.998C220.762 417.623 215.873 419.565 210.571 420.823C205.158 422.105 199.457 422.877 193.468 423.138C187.369 423.424 181.267 423.567 175.161 423.566C168.945 423.59 162.885 423.666 156.981 423.793C151.009 423.877 145.478 424.38 140.387 425.302C135.229 426.181 130.603 427.631 126.51 429.652C122.374 431.74 119.056 434.767 116.555 438.731C114.096 442.629 112.471 446.395 111.681 450.03C110.891 453.665 110.822 457.05 111.474 460.186C112.126 463.322 113.411 466.199 115.329 468.818C117.179 471.395 119.549 473.594 122.438 475.417C126.067 477.707 129.796 479.167 133.626 479.798C137.388 480.386 141.12 480.204 144.821 479.251C148.455 478.256 152.046 476.435 155.595 473.789C159.101 471.21 162.345 467.854 165.327 463.723L189.82 479.176Z" fill="#004DE1"/>
<path d="M55.1998 206.633L49.6445 179.295L165.289 114.618L263.016 184.539L268.586 211.884L244.562 237.397L167.056 164.416L138.918 188.409C137.347 189.721 135.906 190.893 134.597 191.927C133.374 192.869 132.151 193.81 130.929 194.752C129.795 195.777 128.573 196.807 127.264 197.841C126.041 198.782 124.644 199.909 123.073 201.22C127.321 202.778 131.263 204.571 134.899 206.6C138.624 208.713 141.953 210.8 144.885 212.863C147.905 215.01 150.484 217.002 152.62 218.839C154.845 220.76 156.626 222.349 157.962 223.608C166.643 221.97 169.681 212.6 178.158 238.744C184.214 267.778 184.798 273.468 184.838 284.492C184.878 295.517 182.757 306.426 178.477 317.219C174.372 328.004 168.099 337.88 159.655 346.846C151.909 355.074 142.955 361.816 132.795 367.072C122.811 372.321 112.184 375.395 100.916 376.295C89.824 377.187 78.3054 375.497 66.3604 371.225C54.5915 366.945 43.05 359.478 31.7359 348.824C24.0744 341.61 17.9018 333.618 13.2182 324.848C8.62359 316.161 3.61781 308.804 1.24324 290.574C-5.60118 245.336 4.2421 276.458 6.84636 265.481C9.45063 254.505 14.1219 243.207 20.8601 231.589L47.3591 234.444L52.9316 261.788C49.6567 268.122 47.3494 274.32 46.0099 280.384C44.6704 286.447 44.1204 292.208 44.3599 297.665C44.6865 303.031 45.8005 307.916 47.702 312.323C49.6035 316.729 52.2469 320.527 55.6322 323.714C60.532 328.328 66.0775 331.631 72.2687 333.624C78.5489 335.701 84.9463 336.493 91.4611 336C98.0629 335.415 104.562 333.6 110.959 330.554C117.444 327.417 123.297 323.075 128.519 317.528C133.829 311.889 137.679 305.748 140.069 299.104C142.459 292.46 143.572 285.835 143.407 279.227C143.332 272.703 142.026 266.503 139.491 260.628C137.132 254.744 133.725 249.705 129.27 245.51C126.776 243.161 123.8 241.057 120.342 239.196C116.884 237.335 113.165 235.839 109.187 234.709C105.209 233.579 100.971 232.815 96.472 232.416C92.0627 232.101 87.6594 232.314 83.2623 233.057L55.1998 206.633Z" fill="url(#paint3_linear)"/>
<path d="M49.6331 179.286L159.723 87.2709L263.019 184.537L238.996 210.05L161.49 137.069L133.351 161.062C131.78 162.374 130.34 163.546 129.03 164.58C127.807 165.522 126.585 166.463 125.362 167.405C124.228 168.43 123.007 169.46 121.697 170.494C120.474 171.435 119.078 172.561 117.507 173.873C121.754 175.431 125.696 177.224 129.332 179.253C133.058 181.365 136.386 183.453 139.318 185.516C142.339 187.663 144.917 189.655 147.053 191.492C149.278 193.413 151.059 195.002 152.395 196.26C161.304 204.649 167.979 214.161 172.42 224.795C176.948 235.337 179.232 246.12 179.271 257.145C179.311 268.17 177.191 279.079 172.91 289.872C168.806 300.657 162.532 310.533 154.089 319.499C146.342 327.726 137.388 334.468 127.228 339.725C117.244 344.974 106.618 348.048 95.3494 348.948C84.2573 349.839 72.7387 348.149 60.7937 343.878C49.0248 339.598 37.4833 332.131 26.1692 321.477C18.5077 314.263 12.3351 306.271 7.65145 297.501C3.05687 288.814 0.172954 279.471 -1.00037 269.472C-2.08461 259.557 -1.32463 249.111 1.27964 238.134C3.8839 227.158 8.55515 215.86 15.2934 204.242L47.3648 234.441C44.0899 240.775 41.7827 246.973 40.4432 253.037C39.1037 259.1 38.5537 264.861 38.7932 270.318C39.1198 275.684 40.2337 280.569 42.1352 284.976C44.0368 289.382 46.6802 293.179 50.0655 296.367C54.9653 300.981 60.5108 304.284 66.702 306.277C72.9822 308.354 79.3796 309.146 85.8944 308.653C92.4962 308.068 98.9957 306.252 105.393 303.207C111.877 300.07 117.73 295.728 122.953 290.181C128.262 284.542 132.112 278.401 134.502 271.757C136.893 265.113 138.005 258.488 137.841 251.88C137.765 245.356 136.459 239.156 133.924 233.281C131.565 227.397 128.158 222.358 123.704 218.163C121.209 215.814 118.233 213.71 114.775 211.849C111.317 209.988 107.599 208.492 103.62 207.362C99.6422 206.232 95.4038 205.468 90.9053 205.069C86.4959 204.753 82.0927 204.967 77.6956 205.71L49.6331 179.286Z" fill="url(#paint4_linear)"/>
<path d="M293.049 755.378C284.97 750.577 267.514 741 250.308 730.662C248.175 709.276 284.332 670.958 284.455 649.73C284.921 614.461 289.069 579.541 296.897 544.97C304.989 510.131 317.157 475.694 333.4 441.659C349.555 407.411 370.575 373.671 396.46 340.441L37.209 395.082L-5.47899 370.299L13.0632 336.08L484.195 233.111L526.955 257.919L546.507 305.698C521.938 338.501 500.042 371.011 480.821 403.228C461.95 435.392 446.715 468.705 435.117 503.169C423.432 537.419 416.084 573.62 413.074 611.774C410.063 649.927 412.485 691.342 420.339 736.018L293.049 755.378Z" fill="#9B0052"/>
<path d="M250.32 730.602C244.387 695.171 241.523 659.955 241.726 624.954C242.192 589.685 246.339 554.765 254.168 520.194C262.26 485.355 274.427 450.918 290.67 416.883C306.826 382.635 327.846 348.895 353.73 315.665L-5.52022 370.306L-29.666 311.304L484.225 233.143L503.778 280.922C479.209 313.725 457.313 346.235 438.091 378.452C419.22 410.616 403.986 443.929 392.388 478.393C380.703 512.643 373.355 548.844 370.345 586.998C367.334 625.151 369.756 666.566 377.609 711.242L250.32 730.602Z" fill="#EA007B"/>
<path d="M406.097 526.393C403.089 522.479 400.614 518.223 398.669 513.624C396.744 508.878 395.479 503.957 394.873 498.86C394.351 493.698 394.562 488.371 395.506 482.878C396.533 477.32 398.463 471.731 401.296 466.11C396.032 466.844 391.162 467.143 386.687 467.006C382.211 466.869 377.928 466.121 373.837 464.762C369.829 463.338 365.982 461.261 362.295 458.532C358.627 455.655 355.002 451.885 351.418 447.221C346.491 440.809 343.216 433.79 341.593 426.163C339.907 418.452 339.879 410.66 341.509 402.785C343.075 394.826 346.303 387.048 351.193 379.45C356.018 371.768 362.511 364.792 370.672 358.521C379.166 351.994 371.177 344.484 379.906 341.882C388.718 339.217 413.836 341.18 422.057 341.882C430.214 342.501 437.791 344.692 444.788 348.454C451.785 352.216 457.747 357.303 462.674 363.715C465.298 367.13 467.316 370.876 468.729 374.956C470.226 378.972 471.168 383.214 471.556 387.684C471.964 392.006 471.869 396.45 471.271 401.015C470.757 405.516 469.832 410.001 468.498 414.47C473.807 413.967 479.112 414.063 484.413 414.757C489.798 415.387 494.917 416.619 499.77 418.453C504.706 420.222 509.27 422.543 513.463 425.413C517.655 428.284 521.255 431.676 524.263 435.59C530.406 443.585 534.401 451.972 536.247 460.751C538.029 469.448 537.983 478.092 536.109 486.684C534.235 495.277 530.603 503.564 525.214 511.546C519.844 519.381 512.996 526.498 504.668 532.897C496.507 539.168 488.046 544.014 479.285 547.435C470.524 550.857 461.846 552.492 453.253 552.34C444.596 552.105 421.927 551.563 413.855 547.435C405.866 543.244 412.816 535.137 406.097 526.393ZM435.326 503.932C438.398 507.929 442.059 511.142 446.309 513.571C450.579 515.853 455.07 517.302 459.783 517.919C464.578 518.473 469.375 518.164 474.171 516.995C478.904 515.742 483.31 513.548 487.391 510.413C491.554 507.213 494.892 503.456 497.405 499.142C499.853 494.744 501.386 490.189 502.003 485.476C502.703 480.7 502.459 475.987 501.27 471.338C500.101 466.541 497.98 462.144 494.909 458.147C491.837 454.15 488.167 451.01 483.897 448.729C479.71 446.383 475.251 444.975 470.519 444.505C465.807 443.888 461.043 444.238 456.227 445.555C451.411 446.872 446.921 449.13 442.757 452.329C438.677 455.465 435.422 459.158 432.993 463.408C430.564 467.659 429 472.172 428.299 476.949C427.618 481.578 427.83 486.249 428.936 490.962C430.125 495.612 432.255 499.935 435.326 503.932ZM381.732 425.914C384.164 429.078 387.133 431.564 390.642 433.372C394.15 435.179 397.901 436.27 401.897 436.643C405.828 436.933 409.814 436.519 413.855 435.4C417.98 434.218 421.791 432.283 425.288 429.595C428.869 426.844 431.762 423.628 433.966 419.947C436.254 416.202 437.764 412.393 438.496 408.519C439.247 404.498 439.201 400.56 438.358 396.705C437.598 392.786 436.002 389.244 433.57 386.08C431.138 382.916 428.146 380.314 424.594 378.276C421.06 376.091 417.273 374.696 413.233 374.092C409.129 373.405 404.909 373.602 400.574 374.682C396.238 375.762 392.03 377.869 387.95 381.005C383.786 384.204 380.624 387.76 378.464 391.671C376.388 395.518 375.195 399.481 374.885 403.56C374.512 407.555 374.968 411.51 376.253 415.423C377.474 419.252 379.3 422.75 381.732 425.914Z" fill="#073FAB"/>
<path d="M380.141 525.217C377.133 521.303 374.657 517.047 372.713 512.449C370.788 507.703 369.523 502.781 368.917 497.684C368.394 492.523 368.605 487.195 369.549 481.702C370.577 476.144 372.507 470.555 375.34 464.935C370.076 465.669 365.206 465.967 360.73 465.83C356.255 465.694 351.971 464.946 347.88 463.586C343.872 462.162 340.025 460.086 336.338 457.356C332.671 454.479 329.045 450.709 325.462 446.046C320.534 439.634 317.26 432.614 315.637 424.987C313.95 417.277 313.922 409.484 315.553 401.609C317.119 393.651 320.347 385.872 325.236 378.274C330.062 370.593 336.555 363.616 344.716 357.345C353.21 350.818 361.821 346.254 370.55 343.652C379.362 340.986 387.879 340.005 396.101 340.707C404.258 341.326 411.835 343.516 418.832 347.278C425.829 351.04 431.791 356.128 436.718 362.54C439.342 365.954 441.36 369.701 442.773 373.78C444.269 377.796 445.212 382.039 445.6 386.508C446.008 390.831 445.913 395.274 445.315 399.84C444.8 404.341 443.876 408.826 442.542 413.295C447.85 412.791 453.155 412.887 458.457 413.581C463.842 414.211 468.961 415.443 473.813 417.277C478.749 419.047 483.314 421.367 487.506 424.238C491.699 427.109 495.299 430.501 498.307 434.415C504.45 442.409 508.444 450.796 510.29 459.576C512.072 468.272 512.027 476.917 510.152 485.509C508.278 494.101 504.647 502.388 499.258 510.37C493.888 518.205 487.039 525.322 478.712 531.721C470.551 537.992 462.09 542.838 453.329 546.26C444.567 549.681 435.89 551.316 427.297 551.164C418.64 550.929 410.275 548.748 402.203 544.62C394.214 540.429 386.86 533.961 380.141 525.217ZM409.37 502.757C412.441 506.754 416.102 509.967 420.353 512.396C424.623 514.677 429.114 516.127 433.826 516.744C438.622 517.297 443.418 516.989 448.215 515.819C452.947 514.567 457.354 512.373 461.434 509.237C465.598 506.038 468.936 502.281 471.448 497.966C473.897 493.568 475.429 489.013 476.046 484.301C476.747 479.524 476.503 474.811 475.314 470.162C474.144 465.365 472.024 460.969 468.952 456.971C465.881 452.974 462.21 449.835 457.94 447.553C453.754 445.207 449.295 443.8 444.563 443.33C439.851 442.713 435.086 443.063 430.271 444.379C425.455 445.696 420.965 447.954 416.801 451.154C412.721 454.289 409.466 457.982 407.037 462.233C404.608 466.483 403.043 470.997 402.343 475.773C401.662 480.402 401.874 485.073 402.98 489.787C404.168 494.436 406.298 498.759 409.37 502.757ZM355.776 424.738C358.207 427.903 361.177 430.389 364.685 432.196C368.193 434.004 371.945 435.094 375.94 435.467C379.872 435.758 383.858 435.343 387.899 434.225C392.023 433.042 395.834 431.107 399.332 428.42C402.913 425.668 405.805 422.452 408.01 418.771C410.298 415.026 411.807 411.217 412.539 407.344C413.291 403.323 413.245 399.385 412.401 395.53C411.641 391.611 410.045 388.069 407.614 384.904C405.182 381.74 402.19 379.139 398.637 377.101C395.104 374.915 391.317 373.521 387.277 372.917C383.173 372.23 378.953 372.426 374.617 373.506C370.282 374.586 366.074 376.694 361.993 379.829C357.83 383.029 354.668 386.584 352.508 390.495C350.431 394.343 349.238 398.306 348.929 402.384C348.556 406.38 349.011 410.334 350.297 414.247C351.518 418.077 353.344 421.574 355.776 424.738Z" fill="#004DE1"/>
<path d="M396.467 121.966C395.064 121.068 380.167 112.596 380.188 111.753C380.244 109.521 396.507 114.943 396.091 112.612C395.517 109.399 394.462 106.342 392.926 103.441C391.468 100.564 389.52 98.013 387.082 95.7882C384.722 93.5879 381.878 91.9758 378.55 90.9521C373.557 89.4165 368.677 89.347 363.911 90.7436C359.144 92.1401 354.639 94.6582 350.397 98.298C346.179 101.859 342.232 106.37 338.557 111.832C334.961 117.319 331.786 123.412 329.031 130.112C332.865 128.082 336.645 126.512 340.369 125.402C344.173 124.316 347.775 123.603 351.177 123.261C354.578 122.919 357.712 122.885 360.577 123.159C363.521 123.457 360.392 118.886 362.611 119.569C370.932 122.128 383.614 130.895 389.235 135.747C394.881 140.519 399.155 146.084 402.057 152.442C405.063 158.745 406.667 165.657 406.869 173.18C407.175 180.647 406.109 188.344 403.672 196.269C401.454 203.48 398.117 209.958 393.661 215.7C389.285 221.468 384.043 226.101 377.936 229.601C371.828 233.101 364.995 235.293 357.436 236.178C349.901 236.984 341.934 236.094 333.533 233.511C324.499 230.732 301.978 217.629 295.68 211.876C289.461 206.146 299.603 208.025 296.396 199.838C293.188 191.652 291.633 182.325 291.729 171.859C291.905 161.416 293.881 150.053 297.659 137.769C302.12 123.267 307.471 110.946 313.712 100.808C319.953 90.6695 326.874 82.6922 334.475 76.8758C342.076 71.0594 350.146 67.3825 358.686 65.8454C367.306 64.3325 366.625 58.0072 375.818 60.8347C384.219 63.4183 400.643 73.9784 405.916 78.5498C411.293 83.0662 415.372 88.1375 418.152 93.7637C420.933 99.3899 422.659 105.342 423.33 111.621C424.001 117.9 423.923 124.078 423.095 130.156L396.467 121.966ZM340.187 211.876C343.833 212.997 347.497 213.213 351.178 212.523C354.86 211.834 358.301 210.377 361.501 208.151C364.781 205.95 367.652 203.103 370.114 199.61C372.656 196.141 374.609 192.188 375.974 187.75C377.29 183.47 377.923 179.154 377.874 174.802C377.825 170.449 377.102 166.453 375.706 162.814C374.334 159.096 372.331 155.878 369.697 153.159C367.088 150.361 363.841 148.365 359.958 147.171C355.282 145.733 350.896 145.468 346.8 146.377C342.783 147.31 339.138 149.008 335.864 151.472C332.695 153.88 329.97 156.815 327.691 160.278C325.436 163.662 323.76 167.136 322.663 170.703C321.225 175.378 320.637 179.969 320.9 184.474C321.187 188.899 322.147 192.968 323.781 196.68C325.44 200.313 327.678 203.474 330.494 206.162C333.311 208.85 336.542 210.754 340.187 211.876Z" fill="#073FAB"/>
<path d="M380.139 111.868C380.462 108.844 380.336 105.726 379.763 102.513C379.19 99.301 378.135 96.244 376.598 93.3425C375.141 90.4654 373.193 87.9145 370.754 85.6897C368.395 83.4894 365.551 81.8774 362.222 80.8536C357.23 79.3181 352.35 79.2485 347.583 80.6451C342.816 82.0416 338.312 84.5598 334.069 88.1995C329.851 91.7601 325.905 96.2715 322.23 101.734C318.634 107.221 315.458 113.314 312.704 120.014C316.538 117.983 320.317 116.413 324.042 115.303C327.845 114.218 331.448 113.504 334.85 113.162C338.251 112.821 341.384 112.787 344.249 113.061C347.194 113.359 349.776 113.849 351.995 114.532C360.316 117.091 367.287 120.797 372.908 125.648C378.553 130.421 382.827 135.986 385.73 142.344C388.736 148.646 390.34 155.559 390.542 163.081C390.847 170.549 389.782 178.245 387.344 186.17C385.126 193.382 381.789 199.859 377.334 205.602C372.958 211.369 367.716 216.003 361.608 219.503C355.5 223.002 348.667 225.195 341.108 226.08C333.574 226.885 325.606 225.996 317.206 223.412C308.171 220.634 300.505 216.367 294.207 210.614C287.989 204.884 283.276 197.926 280.068 189.74C276.861 181.553 275.305 172.227 275.402 161.76C275.577 151.318 277.554 139.955 281.332 127.671C285.793 113.168 291.143 100.848 297.384 90.7093C303.625 80.5711 310.546 72.5937 318.147 66.7773C325.748 60.9609 333.819 57.2841 342.359 55.7469C350.978 54.2341 359.885 54.8914 369.078 57.7188C377.478 60.3025 384.315 63.8799 389.589 68.4513C394.966 72.9677 399.045 78.039 401.825 83.6652C404.605 89.2915 406.331 95.2439 407.003 101.523C407.674 107.801 407.595 113.98 406.767 120.057L380.139 111.868ZM323.86 201.777C327.505 202.898 331.169 203.114 334.851 202.425C338.533 201.736 341.974 200.278 345.174 198.053C348.453 195.852 351.324 193.005 353.786 189.512C356.328 186.043 358.281 182.089 359.646 177.651C360.963 173.372 361.596 169.056 361.547 164.703C361.497 160.351 360.775 156.355 359.378 152.716C358.006 148.998 356.003 145.779 353.369 143.061C350.76 140.263 347.514 138.267 343.631 137.073C338.955 135.634 334.569 135.37 330.472 136.279C326.455 137.212 322.81 138.91 319.537 141.373C316.367 143.781 313.643 146.717 311.363 150.18C309.108 153.563 307.432 157.038 306.335 160.604C304.897 165.28 304.31 169.87 304.572 174.375C304.859 178.801 305.82 182.87 307.454 186.582C309.113 190.215 311.35 193.375 314.167 196.063C316.983 198.751 320.214 200.656 323.86 201.777Z" fill="#004DE1"/>
</g>
<path d="M155.451 195.814V184.288H117.356V201.395H130.701L130.58 202.608C129.852 209.645 123.907 214.316 115.536 214.316C104.253 214.316 96.9127 204.792 96.9127 188.838C96.9127 173.248 103.343 164.27 114.262 164.27C121.663 164.27 127.425 168.456 129.124 174.886H154.42C152.479 156.93 136.1 144.009 114.141 144.009C87.1463 144.009 70.707 160.509 70.707 189.202C70.707 218.259 87.1463 234.577 114.929 234.577C140.346 234.577 155.451 219.775 155.451 195.814Z" fill="white"/>
<path d="M236.279 166.09H211.407V203.518C211.407 210.009 207.768 214.316 202.187 214.316C196.363 214.316 192.542 210.555 192.542 203.457V166.09H167.671V209.038C167.671 224.992 178.226 234.395 192.602 234.395C202.612 234.395 208.86 228.996 211.529 219.897H212.014V233.06H236.279V166.09Z" fill="white"/>
<path d="M293.57 211.343C292.114 215.347 288.049 217.713 283.014 217.713C276.342 217.713 271.61 212.981 271.61 206.43V204.853H316.014V198.119C316.014 177.616 302.608 164.391 281.862 164.391C260.812 164.391 247.649 178.04 247.649 199.939C247.649 221.716 260.691 234.759 282.651 234.759C301.031 234.759 313.648 225.781 315.711 211.343H293.57ZM282.408 181.498C288.231 181.498 292.417 185.38 292.842 191.386H271.974C272.459 185.623 276.766 181.498 282.408 181.498Z" fill="white"/>
<path d="M326.171 186.897C326.171 197.27 333.147 204.489 346.432 206.915L358.565 209.16C364.206 210.191 366.147 211.525 366.147 213.952C366.147 216.742 363.175 218.501 358.383 218.501C352.802 218.501 349.526 215.954 348.677 211.768H324.655C325.807 225.477 337.272 234.759 358.383 234.759C377.794 234.759 390.776 225.659 390.776 211.101C390.776 200.97 384.285 195.389 369.787 192.72L357.655 190.476C351.589 189.323 349.951 187.867 349.951 185.502C349.951 182.469 352.984 180.649 357.473 180.649C362.811 180.649 365.905 183.682 366.208 187.746H388.774C388.471 173.43 377.006 164.391 357.473 164.391C338 164.391 326.171 172.945 326.171 186.897Z" fill="white"/>
<path d="M400.023 186.897C400.023 197.27 406.999 204.489 420.284 206.915L432.416 209.16C438.058 210.191 439.999 211.525 439.999 213.952C439.999 216.742 437.026 218.501 432.234 218.501C426.653 218.501 423.378 215.954 422.528 211.768H398.506C399.659 225.477 411.124 234.759 432.234 234.759C451.646 234.759 464.627 225.659 464.627 211.101C464.627 200.97 458.137 195.389 443.638 192.72L431.506 190.476C425.44 189.323 423.802 187.867 423.802 185.502C423.802 182.469 426.835 180.649 431.324 180.649C436.662 180.649 439.756 183.682 440.059 187.746H462.625C462.322 173.43 450.857 164.391 431.324 164.391C411.852 164.391 400.023 172.945 400.023 186.897Z" fill="white"/>
<path d="M179.17 346.871V259.337H153.449V292.579H122.633V259.337H96.9127V346.871H122.633V313.022H153.449V346.871H179.17Z" fill="white"/>
<path d="M212.742 347.842C220.507 347.842 228.635 344.445 232.154 337.893H232.639V346.871H256.903V301.072C256.903 287.484 244.468 278.203 225.905 278.203C206.373 278.203 194.24 287.241 193.634 301.557H215.836C216.2 298.16 219.475 295.37 224.571 295.37C229.242 295.37 232.639 297.796 232.639 302.285V305.561L217.959 306.471C200.064 307.563 190.176 314.539 190.176 327.399C190.176 339.471 200.549 347.842 212.742 347.842ZM222.023 331.221C217.656 331.221 214.683 329.097 214.683 325.458C214.683 322.182 217.352 319.938 222.084 319.574L232.639 318.846V323.213C232.639 328.127 227.543 331.221 222.023 331.221Z" fill="white"/>
<path d="M268.88 300.708C268.88 311.081 275.856 318.3 289.141 320.726L301.274 322.971C306.915 324.002 308.856 325.336 308.856 327.763C308.856 330.553 305.884 332.312 301.092 332.312C295.511 332.312 292.235 329.765 291.386 325.579H267.364C268.516 339.289 279.981 348.57 301.092 348.57C320.503 348.57 333.485 339.471 333.485 324.912C333.485 314.781 326.994 309.201 312.496 306.531L300.364 304.287C294.298 303.134 292.66 301.678 292.66 299.313C292.66 296.28 295.693 294.46 300.182 294.46C305.52 294.46 308.614 297.493 308.917 301.557H331.483C331.18 287.241 319.715 278.203 300.182 278.203C280.709 278.203 268.88 286.756 268.88 300.708Z" fill="white"/>
<path d="M344.188 346.871H369.059V309.443C369.059 303.195 372.395 298.645 378.583 298.645C384.831 298.645 388.107 302.77 388.107 309.504V346.871H412.978V303.984C412.978 287.908 404.849 278.567 389.805 278.567C379.614 278.567 372.274 283.662 368.938 293.065H368.452V259.337H344.188V346.871Z" fill="white"/>
<path d="M431.575 316.344L448.088 319.831L462.453 277.287L471.17 254.65L441.77 247.154L438.539 271.197L431.575 316.344ZM431.575 352.291C438.054 353.821 444.08 350.318 445.671 343.58C447.292 336.711 443.469 330.883 436.99 329.354C430.51 327.824 424.484 331.327 422.863 338.195C421.272 344.934 424.965 350.731 431.575 352.291Z" fill="white"/>
<defs>
<linearGradient id="paint0_linear" x1="-4.03961e-07" y1="-51.2068" x2="271" y2="476.065" gradientUnits="userSpaceOnUse">
<stop stop-color="#654D5A"/>
<stop offset="1" stop-color="#250F1B"/>
</linearGradient>
<linearGradient id="paint1_linear" x1="398.739" y1="312.879" x2="-16.1811" y2="-20.5928" gradientUnits="userSpaceOnUse">
<stop stop-color="#EB027D"/>
<stop offset="1" stop-color="#FF9ED1"/>
</linearGradient>
<linearGradient id="paint2_linear" x1="230.147" y1="105.272" x2="71.3802" y2="35.0559" gradientUnits="userSpaceOnUse">
<stop stop-color="#003EB5"/>
<stop offset="1" stop-color="#073999"/>
</linearGradient>
<linearGradient id="paint3_linear" x1="130.621" y1="209.205" x2="113.903" y2="393.044" gradientUnits="userSpaceOnUse">
<stop stop-color="#C60068"/>
<stop offset="1" stop-color="#FF1992"/>
</linearGradient>
<linearGradient id="paint4_linear" x1="140.076" y1="129.2" x2="110.262" y2="366.171" gradientUnits="userSpaceOnUse">
<stop stop-color="#E00076"/>
<stop offset="1" stop-color="#FF8AC8"/>
</linearGradient>
</defs>
</svg>
