<svg width="172" height="50" viewBox="0 0 172 50" fill="none" xmlns="http://www.w3.org/2000/svg">
<g clip-path="url(#clip0)">
<path d="M17.5 42.5C27.165 42.5 35 34.665 35 25C35 15.335 27.165 7.5 17.5 7.5C7.83501 7.5 0 15.335 0 25C0 34.665 7.83501 42.5 17.5 42.5Z" fill="#626572"/>
<path d="M25.8792 15.9774C26.6543 15.9774 27.2827 15.349 27.2827 14.5739C27.2827 13.7987 26.6543 13.1703 25.8792 13.1703C25.104 13.1703 24.4756 13.7987 24.4756 14.5739C24.4756 15.349 25.104 15.9774 25.8792 15.9774Z" fill="#EB027D"/>
<path d="M23.0592 16.7389C23.691 16.7389 24.2033 16.2267 24.2033 15.5948C24.2033 14.9629 23.691 14.4507 23.0592 14.4507C22.4273 14.4507 21.915 14.9629 21.915 15.5948C21.915 16.2267 22.4273 16.7389 23.0592 16.7389Z" fill="#EB027D"/>
<path d="M13.9562 26.1399C14.2945 26.1399 14.5687 25.8656 14.5687 25.5274C14.5687 25.1891 14.2945 24.9149 13.9562 24.9149C13.618 24.9149 13.3438 25.1891 13.3438 25.5274C13.3438 25.8656 13.618 26.1399 13.9562 26.1399Z" fill="#EB027D"/>
<path d="M14.0914 27.7092C14.1 27.3452 13.8118 27.0432 13.4479 27.0347C13.0839 27.0261 12.7819 27.3142 12.7733 27.6782C12.7647 28.0422 13.0529 28.3442 13.4169 28.3528C13.7809 28.3613 14.0829 28.0732 14.0914 27.7092Z" fill="#EB027D"/>
<path d="M13.7478 23.0856C14.1495 23.0856 14.4751 22.76 14.4751 22.3583C14.4751 21.9566 14.1495 21.631 13.7478 21.631C13.3461 21.631 13.0205 21.9566 13.0205 22.3583C13.0205 22.76 13.3461 23.0856 13.7478 23.0856Z" fill="#EB027D"/>
<path d="M13.4074 21.2139C13.8842 21.2139 14.2708 20.8273 14.2708 20.3505C14.2708 19.8736 13.8842 19.4871 13.4074 19.4871C12.9305 19.4871 12.5439 19.8736 12.5439 20.3505C12.5439 20.8273 12.9305 21.2139 13.4074 21.2139Z" fill="#EB027D"/>
<path d="M14.5265 24.6298C14.8648 24.6298 15.139 24.3556 15.139 24.0174C15.139 23.6791 14.8648 23.4049 14.5265 23.4049C14.1883 23.4049 13.9141 23.6791 13.9141 24.0174C13.9141 24.3556 14.1883 24.6298 14.5265 24.6298Z" fill="#EB027D"/>
<path d="M15.6067 25.689C15.8863 25.689 16.1129 25.4624 16.1129 25.1829C16.1129 24.9034 15.8863 24.6768 15.6067 24.6768C15.3272 24.6768 15.1006 24.9034 15.1006 25.1829C15.1006 25.4624 15.3272 25.689 15.6067 25.689Z" fill="#EB027D"/>
<path d="M15.428 26.8885C15.7075 26.8885 15.9341 26.6619 15.9341 26.3824C15.9341 26.1028 15.7075 25.8762 15.428 25.8762C15.1485 25.8762 14.9219 26.1028 14.9219 26.3824C14.9219 26.6619 15.1485 26.8885 15.428 26.8885Z" fill="#EB027D"/>
<path d="M15.6408 22.9624C15.979 22.9624 16.2533 22.6882 16.2533 22.3499C16.2533 22.0116 15.979 21.7374 15.6408 21.7374C15.3025 21.7374 15.0283 22.0116 15.0283 22.3499C15.0283 22.6882 15.3025 22.9624 15.6408 22.9624Z" fill="#EB027D"/>
<path d="M16.054 24.196C16.3335 24.196 16.5601 23.9694 16.5601 23.6899C16.5601 23.4103 16.3335 23.1837 16.054 23.1837C15.7745 23.1837 15.5479 23.4103 15.5479 23.6899C15.5479 23.9694 15.7745 24.196 16.054 24.196Z" fill="#EB027D"/>
<path d="M16.7258 27.3395C16.9583 27.3395 17.1468 27.1509 17.1468 26.9184C17.1468 26.6858 16.9583 26.4973 16.7258 26.4973C16.4932 26.4973 16.3047 26.6858 16.3047 26.9184C16.3047 27.1509 16.4932 27.3395 16.7258 27.3395Z" fill="#EB027D"/>
<path d="M17.0461 28.0197C17.0515 27.7872 16.8675 27.5943 16.635 27.5889C16.4025 27.5834 16.2096 27.7675 16.2042 28C16.1987 28.2324 16.3828 28.4253 16.6153 28.4308C16.8478 28.4362 17.0406 28.2521 17.0461 28.0197Z" fill="#EB027D"/>
<path d="M16.8107 26.3484C17.0433 26.3484 17.2318 26.1598 17.2318 25.9273C17.2318 25.6947 17.0433 25.5062 16.8107 25.5062C16.5782 25.5062 16.3896 25.6947 16.3896 25.9273C16.3896 26.1598 16.5782 26.3484 16.8107 26.3484Z" fill="#EB027D"/>
<path d="M16.9513 25.2084C17.1839 25.2084 17.3724 25.0198 17.3724 24.7873C17.3724 24.5547 17.1839 24.3662 16.9513 24.3662C16.7188 24.3662 16.5303 24.5547 16.5303 24.7873C16.5303 25.0198 16.7188 25.2084 16.9513 25.2084Z" fill="#EB027D"/>
<path d="M17.1174 24.0896C17.3499 24.0896 17.5384 23.9011 17.5384 23.6685C17.5384 23.436 17.3499 23.2474 17.1174 23.2474C16.8848 23.2474 16.6963 23.436 16.6963 23.6685C16.6963 23.9011 16.8848 24.0896 17.1174 24.0896Z" fill="#EB027D"/>
<path d="M17.1975 22.856C17.4771 22.856 17.7037 22.6294 17.7037 22.3499C17.7037 22.0704 17.4771 21.8438 17.1975 21.8438C16.918 21.8438 16.6914 22.0704 16.6914 22.3499C16.6914 22.6294 16.918 22.856 17.1975 22.856Z" fill="#EB027D"/>
<path d="M19.2443 18.9127C19.7211 18.9127 20.1077 18.5262 20.1077 18.0493C20.1077 17.5725 19.7211 17.1859 19.2443 17.1859C18.7674 17.1859 18.3809 17.5725 18.3809 18.0493C18.3809 18.5262 18.7674 18.9127 19.2443 18.9127Z" fill="#EB027D"/>
<path d="M18.0447 20.1165C18.4464 20.1165 18.772 19.7909 18.772 19.3892C18.772 18.9875 18.4464 18.6619 18.0447 18.6619C17.643 18.6619 17.3174 18.9875 17.3174 19.3892C17.3174 19.7909 17.643 20.1165 18.0447 20.1165Z" fill="#EB027D"/>
<path d="M17.4533 21.4947C17.7915 21.4947 18.0658 21.2205 18.0658 20.8822C18.0658 20.544 17.7915 20.2698 17.4533 20.2698C17.115 20.2698 16.8408 20.544 16.8408 20.8822C16.8408 21.2205 17.115 21.4947 17.4533 21.4947Z" fill="#EB027D"/>
<path d="M15.9767 19.6571C16.4535 19.6571 16.8401 19.2706 16.8401 18.7937C16.8401 18.3169 16.4535 17.9303 15.9767 17.9303C15.4998 17.9303 15.1133 18.3169 15.1133 18.7937C15.1133 19.2706 15.4998 19.6571 15.9767 19.6571Z" fill="#EB027D"/>
<path d="M15.5476 21.3585C15.9493 21.3585 16.2749 21.0329 16.2749 20.6312C16.2749 20.2296 15.9493 19.9039 15.5476 19.9039C15.1459 19.9039 14.8203 20.2296 14.8203 20.6312C14.8203 21.0329 15.1459 21.3585 15.5476 21.3585Z" fill="#EB027D"/>
<path d="M15.7156 27.9708C15.7225 27.6725 15.4863 27.4252 15.1881 27.4183C14.8899 27.4113 14.6425 27.6475 14.6356 27.9457C14.6287 28.244 14.8648 28.4913 15.163 28.4982C15.4613 28.5052 15.7087 28.269 15.7156 27.9708Z" fill="#EB027D"/>
<path d="M20.8982 17.7088C21.4384 17.7088 21.8764 17.2708 21.8764 16.7306C21.8764 16.1903 21.4384 15.7523 20.8982 15.7523C20.3579 15.7523 19.9199 16.1903 19.9199 16.7306C19.9199 17.2708 20.3579 17.7088 20.8982 17.7088Z" fill="#EB027D"/>
<path d="M20.2942 13.7097C21.0694 13.7097 21.6978 13.0813 21.6978 12.3062C21.6978 11.531 21.0694 10.9026 20.2942 10.9026C19.519 10.9026 18.8906 11.531 18.8906 12.3062C18.8906 13.0813 19.519 13.7097 20.2942 13.7097Z" fill="#EB027D"/>
<path d="M18.2701 15.8201C18.902 15.8201 19.4142 15.3079 19.4142 14.676C19.4142 14.0441 18.902 13.5319 18.2701 13.5319C17.6382 13.5319 17.126 14.0441 17.126 14.676C17.126 15.3079 17.6382 15.8201 18.2701 15.8201Z" fill="#EB027D"/>
<path d="M16.8747 17.8067C17.415 17.8067 17.853 17.3687 17.853 16.8285C17.853 16.2882 17.415 15.8502 16.8747 15.8502C16.3345 15.8502 15.8965 16.2882 15.8965 16.8285C15.8965 17.3687 16.3345 17.8067 16.8747 17.8067Z" fill="#EB027D"/>
<path d="M15.1086 13.6885C15.8838 13.6885 16.5122 13.0601 16.5122 12.2849C16.5122 11.5097 15.8838 10.8813 15.1086 10.8813C14.3335 10.8813 13.7051 11.5097 13.7051 12.2849C13.7051 13.0601 14.3335 13.6885 15.1086 13.6885Z" fill="#EB027D"/>
<path d="M14.0582 16.5475C14.6901 16.5475 15.2023 16.0353 15.2023 15.4034C15.2023 14.7715 14.6901 14.2593 14.0582 14.2593C13.4263 14.2593 12.9141 14.7715 12.9141 15.4034C12.9141 16.0353 13.4263 16.5475 14.0582 16.5475Z" fill="#EB027D"/>
<path d="M13.5095 19.07C14.0498 19.07 14.4877 18.632 14.4877 18.0918C14.4877 17.5515 14.0498 17.1135 13.5095 17.1135C12.9692 17.1135 12.5312 17.5515 12.5312 18.0918C12.5312 18.632 12.9692 19.07 13.5095 19.07Z" fill="#EB027D"/>
<path d="M12.5183 24.953C12.92 24.953 13.2456 24.6274 13.2456 24.2257C13.2456 23.824 12.92 23.4984 12.5183 23.4984C12.1166 23.4984 11.791 23.824 11.791 24.2257C11.791 24.6274 12.1166 24.953 12.5183 24.953Z" fill="#EB027D"/>
<path d="M11.3361 23.2643C11.8129 23.2643 12.1995 22.8777 12.1995 22.4009C12.1995 21.924 11.8129 21.5375 11.3361 21.5375C10.8592 21.5375 10.4727 21.924 10.4727 22.4009C10.4727 22.8777 10.8592 23.2643 11.3361 23.2643Z" fill="#EB027D"/>
<path d="M10.6042 21.0523C11.1445 21.0523 11.5825 20.6143 11.5825 20.0741C11.5825 19.5338 11.1445 19.0958 10.6042 19.0958C10.064 19.0958 9.62598 19.5338 9.62598 20.0741C9.62598 20.6143 10.064 21.0523 10.6042 21.0523Z" fill="#EB027D"/>
<path d="M12.3586 26.9126C12.3686 26.4852 12.0301 26.1307 11.6027 26.1208C11.1754 26.1108 10.8208 26.4493 10.8109 26.8767C10.801 27.304 11.1394 27.6586 11.5668 27.6685C11.9942 27.6784 12.3487 27.34 12.3586 26.9126Z" fill="#EB027D"/>
<path d="M10.928 15.1054C11.7032 15.1054 12.3316 14.477 12.3316 13.7018C12.3316 12.9266 11.7032 12.2982 10.928 12.2982C10.1528 12.2982 9.52441 12.9266 9.52441 13.7018C9.52441 14.477 10.1528 15.1054 10.928 15.1054Z" fill="#EB027D"/>
<path d="M10.4166 18.3468C11.0485 18.3468 11.5607 17.8346 11.5607 17.2027C11.5607 16.5708 11.0485 16.0586 10.4166 16.0586C9.7847 16.0586 9.27246 16.5708 9.27246 17.2027C9.27246 17.8346 9.7847 18.3468 10.4166 18.3468Z" fill="#EB027D"/>
<path d="M8.3868 16.8603C8.40384 16.1323 7.82751 15.5284 7.09954 15.5113C6.37156 15.4943 5.76761 16.0706 5.75058 16.7986C5.73354 17.5266 6.30987 18.1305 7.03784 18.1476C7.76581 18.1646 8.36976 17.5883 8.3868 16.8603Z" fill="#EB027D"/>
<path d="M8.69156 20.4751C8.70568 19.8716 8.22789 19.3709 7.62438 19.3568C7.02086 19.3427 6.52017 19.8205 6.50604 20.424C6.49192 21.0275 6.96971 21.5282 7.57323 21.5423C8.17674 21.5564 8.67743 21.0786 8.69156 20.4751Z" fill="#EB027D"/>
<path d="M9.53367 23.3254C9.54625 22.7877 9.12052 22.3415 8.58276 22.3289C8.045 22.3163 7.59885 22.7421 7.58627 23.2798C7.57368 23.8176 7.99942 24.2637 8.53718 24.2763C9.07494 24.2889 9.52108 23.8632 9.53367 23.3254Z" fill="#EB027D"/>
<path d="M10.7666 25.4253C10.7779 24.9439 10.3968 24.5445 9.91538 24.5332C9.43398 24.5219 9.0346 24.903 9.02333 25.3844C9.01206 25.8659 9.39318 26.2652 9.87458 26.2765C10.356 26.2878 10.7554 25.9067 10.7666 25.4253Z" fill="#EB027D"/>
<path d="M14.7092 39.0966C15.4844 39.0966 16.1128 38.4682 16.1128 37.693C16.1128 36.9178 15.4844 36.2894 14.7092 36.2894C13.9341 36.2894 13.3057 36.9178 13.3057 37.693C13.3057 38.4682 13.9341 39.0966 14.7092 39.0966Z" fill="white"/>
<path d="M25.9727 24.6161C25.984 24.1347 25.6028 23.7353 25.1214 23.724C24.64 23.7127 24.2407 24.0938 24.2294 24.5752C24.2181 25.0566 24.5992 25.456 25.0806 25.4673C25.562 25.4786 25.9614 25.0975 25.9727 24.6161Z" fill="white"/>
<path d="M23.6681 28.4666C24.1449 28.4666 24.5315 28.08 24.5315 27.6032C24.5315 27.1263 24.1449 26.7397 23.6681 26.7397C23.1912 26.7397 22.8047 27.1263 22.8047 27.6032C22.8047 28.08 23.1912 28.4666 23.6681 28.4666Z" fill="white"/>
<path d="M24.1869 23.1245C24.1969 22.6972 23.8586 22.3426 23.4312 22.3326C23.0038 22.3226 22.6492 22.6609 22.6392 23.0883C22.6292 23.5157 22.9676 23.8703 23.395 23.8803C23.8223 23.8903 24.1769 23.5519 24.1869 23.1245Z" fill="white"/>
<path d="M24.3991 30.9082C24.9394 30.9082 25.3774 30.4702 25.3774 29.9299C25.3774 29.3896 24.9394 28.9517 24.3991 28.9517C23.8589 28.9517 23.4209 29.3896 23.4209 29.9299C23.4209 30.4702 23.8589 30.9082 24.3991 30.9082Z" fill="white"/>
<path d="M21.2556 28.3731C21.6573 28.3731 21.9829 28.0474 21.9829 27.6458C21.9829 27.2441 21.6573 26.9185 21.2556 26.9185C20.8539 26.9185 20.5283 27.2441 20.5283 27.6458C20.5283 28.0474 20.8539 28.3731 21.2556 28.3731Z" fill="white"/>
<path d="M21.5968 30.517C22.0737 30.517 22.4602 30.1304 22.4602 29.6536C22.4602 29.1767 22.0737 28.7902 21.5968 28.7902C21.12 28.7902 20.7334 29.1767 20.7334 29.6536C20.7334 30.1304 21.12 30.517 21.5968 30.517Z" fill="white"/>
<path d="M17.802 28.1603C18.0816 28.1603 18.3082 27.9337 18.3082 27.6542C18.3082 27.3747 18.0816 27.1481 17.802 27.1481C17.5225 27.1481 17.2959 27.3747 17.2959 27.6542C17.2959 27.9337 17.5225 28.1603 17.802 28.1603Z" fill="white"/>
<path d="M17.8869 26.7567C18.1194 26.7567 18.308 26.5682 18.308 26.3356C18.308 26.1031 18.1194 25.9146 17.8869 25.9146C17.6543 25.9146 17.4658 26.1031 17.4658 26.3356C17.4658 26.5682 17.6543 26.7567 17.8869 26.7567Z" fill="white"/>
<path d="M18.049 25.6376C18.2816 25.6376 18.4701 25.449 18.4701 25.2165C18.4701 24.9839 18.2816 24.7954 18.049 24.7954C17.8165 24.7954 17.6279 24.9839 17.6279 25.2165C17.6279 25.449 17.8165 25.6376 18.049 25.6376Z" fill="white"/>
<path d="M18.2785 23.5067C18.511 23.5067 18.6996 23.3182 18.6996 23.0856C18.6996 22.8531 18.511 22.6646 18.2785 22.6646C18.0459 22.6646 17.8574 22.8531 17.8574 23.0856C17.8574 23.3182 18.0459 23.5067 18.2785 23.5067Z" fill="white"/>
<path d="M18.799 22.0066C18.8044 21.7741 18.6204 21.5812 18.3879 21.5758C18.1554 21.5704 17.9626 21.7544 17.9571 21.9869C17.9517 22.2194 18.1357 22.4122 18.3682 22.4177C18.6007 22.4231 18.7936 22.2391 18.799 22.0066Z" fill="white"/>
<path d="M18.1935 24.4977C18.4261 24.4977 18.6146 24.3091 18.6146 24.0766C18.6146 23.844 18.4261 23.6555 18.1935 23.6555C17.961 23.6555 17.7725 23.844 17.7725 24.0766C17.7725 24.3091 17.961 24.4977 18.1935 24.4977Z" fill="white"/>
<path d="M18.9417 26.812C19.2212 26.812 19.4478 26.5854 19.4478 26.3058C19.4478 26.0263 19.2212 25.7997 18.9417 25.7997C18.6622 25.7997 18.4355 26.0263 18.4355 26.3058C18.4355 26.5854 18.6622 26.812 18.9417 26.812Z" fill="white"/>
<path d="M19.3586 28.2667C19.6968 28.2667 19.971 27.9925 19.971 27.6542C19.971 27.316 19.6968 27.0417 19.3586 27.0417C19.0203 27.0417 18.7461 27.316 18.7461 27.6542C18.7461 27.9925 19.0203 28.2667 19.3586 28.2667Z" fill="white"/>
<path d="M19.3968 25.327C19.6763 25.327 19.9029 25.1004 19.9029 24.8208C19.9029 24.5413 19.6763 24.3147 19.3968 24.3147C19.1172 24.3147 18.8906 24.5413 18.8906 24.8208C18.8906 25.1004 19.1172 25.327 19.3968 25.327Z" fill="white"/>
<path d="M19.5716 24.1234C19.8511 24.1234 20.0777 23.8968 20.0777 23.6172C20.0777 23.3377 19.8511 23.1111 19.5716 23.1111C19.292 23.1111 19.0654 23.3377 19.0654 23.6172C19.0654 23.8968 19.292 24.1234 19.5716 24.1234Z" fill="white"/>
<path d="M20.3631 22.0566C20.3701 21.7583 20.134 21.5109 19.8358 21.5039C19.5376 21.497 19.2901 21.7331 19.2831 22.0313C19.2762 22.3295 19.5123 22.5769 19.8105 22.5839C20.1087 22.5909 20.3562 22.3548 20.3631 22.0566Z" fill="white"/>
<path d="M15.756 32.8182C16.2328 32.8182 16.6194 32.4317 16.6194 31.9548C16.6194 31.478 16.2328 31.0914 15.756 31.0914C15.2791 31.0914 14.8926 31.478 14.8926 31.9548C14.8926 32.4317 15.2791 32.8182 15.756 32.8182Z" fill="white"/>
<path d="M16.9597 31.3422C17.3614 31.3422 17.687 31.0166 17.687 30.6149C17.687 30.2132 17.3614 29.8876 16.9597 29.8876C16.558 29.8876 16.2324 30.2132 16.2324 30.6149C16.2324 31.0166 16.558 31.3422 16.9597 31.3422Z" fill="white"/>
<path d="M17.5509 29.7301C17.8892 29.7301 18.1634 29.4559 18.1634 29.1176C18.1634 28.7793 17.8892 28.5051 17.5509 28.5051C17.2127 28.5051 16.9385 28.7793 16.9385 29.1176C16.9385 29.4559 17.2127 29.7301 17.5509 29.7301Z" fill="white"/>
<path d="M19.0275 32.0737C19.5043 32.0737 19.8909 31.6872 19.8909 31.2103C19.8909 30.7335 19.5043 30.3469 19.0275 30.3469C18.5506 30.3469 18.1641 30.7335 18.1641 31.2103C18.1641 31.6872 18.5506 32.0737 19.0275 32.0737Z" fill="white"/>
<path d="M19.4529 30.1001C19.8546 30.1001 20.1802 29.7745 20.1802 29.3728C20.1802 28.9711 19.8546 28.6455 19.4529 28.6455C19.0512 28.6455 18.7256 28.9711 18.7256 29.3728C18.7256 29.7745 19.0512 30.1001 19.4529 30.1001Z" fill="white"/>
<path d="M20.4738 26.5992C20.8121 26.5992 21.0863 26.325 21.0863 25.9867C21.0863 25.6485 20.8121 25.3743 20.4738 25.3743C20.1355 25.3743 19.8613 25.6485 19.8613 25.9867C19.8613 26.325 20.1355 26.5992 20.4738 26.5992Z" fill="white"/>
<path d="M21.0431 25.0888C21.3814 25.0888 21.6556 24.8146 21.6556 24.4764C21.6556 24.1381 21.3814 23.8639 21.0431 23.8639C20.7049 23.8639 20.4307 24.1381 20.4307 24.4764C20.4307 24.8146 20.7049 25.0888 21.0431 25.0888Z" fill="white"/>
<path d="M22.2252 22.323C22.2338 21.959 21.9456 21.657 21.5816 21.6484C21.2177 21.6399 20.9157 21.928 20.9071 22.292C20.8985 22.656 21.1867 22.958 21.5507 22.9665C21.9146 22.9751 22.2167 22.687 22.2252 22.323Z" fill="white"/>
<path d="M9.12428 36.8336C9.89945 36.8336 10.5278 36.2052 10.5278 35.4301C10.5278 34.6549 9.89945 34.0265 9.12428 34.0265C8.3491 34.0265 7.7207 34.6549 7.7207 35.4301C7.7207 36.2052 8.3491 36.8336 9.12428 36.8336Z" fill="white"/>
<path d="M11.9439 35.5533C12.5758 35.5533 13.0881 35.041 13.0881 34.4091C13.0881 33.7773 12.5758 33.265 11.9439 33.265C11.312 33.265 10.7998 33.7773 10.7998 34.4091C10.7998 35.041 11.312 35.5533 11.9439 35.5533Z" fill="white"/>
<path d="M14.1052 34.2474C14.6455 34.2474 15.0834 33.8094 15.0834 33.2691C15.0834 32.7289 14.6455 32.2909 14.1052 32.2909C13.5649 32.2909 13.127 32.7289 13.127 33.2691C13.127 33.8094 13.5649 34.2474 14.1052 34.2474Z" fill="white"/>
<path d="M16.734 36.4721C17.3659 36.4721 17.8781 35.9598 17.8781 35.328C17.8781 34.6961 17.3659 34.1838 16.734 34.1838C16.1021 34.1838 15.5898 34.6961 15.5898 35.328C15.5898 35.9598 16.1021 36.4721 16.734 36.4721Z" fill="white"/>
<path d="M18.1296 34.1539C18.6699 34.1539 19.1079 33.7159 19.1079 33.1756C19.1079 32.6354 18.6699 32.1974 18.1296 32.1974C17.5893 32.1974 17.1514 32.6354 17.1514 33.1756C17.1514 33.7159 17.5893 34.1539 18.1296 34.1539Z" fill="white"/>
<path d="M19.8909 39.1179C20.666 39.1179 21.2944 38.4895 21.2944 37.7144C21.2944 36.9392 20.666 36.3108 19.8909 36.3108C19.1157 36.3108 18.4873 36.9392 18.4873 37.7144C18.4873 38.4895 19.1157 39.1179 19.8909 39.1179Z" fill="white"/>
<path d="M20.9459 35.7448C21.5778 35.7448 22.09 35.2325 22.09 34.6007C22.09 33.9688 21.5778 33.4565 20.9459 33.4565C20.314 33.4565 19.8018 33.9688 19.8018 34.6007C19.8018 35.2325 20.314 35.7448 20.9459 35.7448Z" fill="white"/>
<path d="M21.4939 32.8905C22.0341 32.8905 22.4721 32.4525 22.4721 31.9122C22.4721 31.3719 22.0341 30.934 21.4939 30.934C20.9536 30.934 20.5156 31.3719 20.5156 31.9122C20.5156 32.4525 20.9536 32.8905 21.4939 32.8905Z" fill="white"/>
<path d="M22.4812 26.501C22.8829 26.501 23.2085 26.1754 23.2085 25.7737C23.2085 25.372 22.8829 25.0464 22.4812 25.0464C22.0795 25.0464 21.7539 25.372 21.7539 25.7737C21.7539 26.1754 22.0795 26.501 22.4812 26.501Z" fill="white"/>
<path d="M24.0764 37.7057C24.8516 37.7057 25.48 37.0773 25.48 36.3021C25.48 35.527 24.8516 34.8986 24.0764 34.8986C23.3013 34.8986 22.6729 35.527 22.6729 36.3021C22.6729 37.0773 23.3013 37.7057 24.0764 37.7057Z" fill="white"/>
<path d="M24.5826 33.9454C25.2145 33.9454 25.7267 33.4331 25.7267 32.8012C25.7267 32.1693 25.2145 31.6571 24.5826 31.6571C23.9507 31.6571 23.4385 32.1693 23.4385 32.8012C23.4385 33.4331 23.9507 33.9454 24.5826 33.9454Z" fill="white"/>
<path d="M27.4116 26.7224C27.4242 26.1846 26.9985 25.7385 26.4607 25.7259C25.9229 25.7133 25.4768 26.139 25.4642 26.6768C25.4516 27.2146 25.8773 27.6607 26.4151 27.6733C26.9529 27.6859 27.399 27.2602 27.4116 26.7224Z" fill="white"/>
<path d="M28.4923 29.5783C28.5065 28.9748 28.0287 28.4741 27.4252 28.4599C26.8216 28.4458 26.321 28.9236 26.3068 29.5271C26.2927 30.1306 26.7705 30.6313 27.374 30.6455C27.9775 30.6596 28.4782 30.1818 28.4923 29.5783Z" fill="white"/>
<path d="M29.2509 33.203C29.2679 32.4751 28.6915 31.8712 27.9635 31.8542C27.2356 31.8372 26.6317 32.4136 26.6147 33.1416C26.5977 33.8696 27.1741 34.4735 27.9021 34.4904C28.6301 34.5074 29.234 33.931 29.2509 33.203Z" fill="white"/>
<path d="M41.4034 33.201V30.2885H49.0679C50.2908 30.2885 51.1039 30.1745 51.505 29.9464C52.0904 29.6042 52.3853 29.0889 52.3853 28.4046C52.3853 27.6041 52.0427 27.0254 51.3554 26.6664C50.9694 26.4552 50.3493 26.3475 49.4951 26.3475H46.3794C44.4866 26.3475 43.1206 26.0138 42.2837 25.3443C41.7633 24.9197 41.3578 24.3896 41.0651 23.7539C40.7703 23.1161 40.625 22.4318 40.625 21.6968C40.625 20.5542 40.9676 19.5108 41.6549 18.5646C42.3249 17.6501 43.396 17.1115 44.8703 16.9489C45.3733 16.9003 46.1192 16.875 47.1079 16.875H55.4251V19.7875H47.9123C46.7892 19.8044 46.0433 19.853 45.6747 19.9353C44.9202 20.1149 44.5451 20.6703 44.5451 21.5996C44.5451 22.3832 44.8638 22.9049 45.4991 23.1667C45.9176 23.3632 46.6222 23.4603 47.6109 23.4603H50.2995C51.6719 23.4603 52.6953 23.5744 53.3653 23.8025C54.5556 24.1932 55.3752 24.8796 55.8284 25.8596C56.1796 26.6432 56.3552 27.4837 56.3552 28.3814C56.3552 29.3761 56.1211 30.2653 55.6506 31.0489C54.998 32.1577 54.0179 32.8272 52.7105 33.0553C52.0731 33.1524 51.1104 33.2031 49.8203 33.2031H41.4034V33.201Z" fill="#626572"/>
<path d="M69.874 30.656V21.2806H73.2412V33.201H66.6065C65.6525 33.201 64.9153 33.1313 64.395 32.9919C63.8746 32.8546 63.4149 32.6054 63.0138 32.2463C62.1596 31.4965 61.7324 30.28 61.7324 28.5988V21.2806H65.0736V28.9431C65.0736 29.4817 65.221 29.902 65.5137 30.204C65.8065 30.506 66.2054 30.656 66.7084 30.656H69.874Z" fill="#626572"/>
<path d="M91.5076 24.3389C91.0046 23.2322 90.1937 22.4085 89.0749 21.872C88.2532 21.4792 87.1864 21.2807 85.879 21.2807H82.9151V16.8771H79.5479V33.2031H85.029C86.1327 33.2031 86.9891 33.1376 87.5897 33.0193C88.1903 32.8947 88.7757 32.6645 89.3503 32.3203C91.139 31.2452 92.0388 29.4986 92.0388 27.0782C92.0367 26.0855 91.861 25.171 91.5076 24.3389ZM87.7892 29.7035C87.2536 30.3371 86.4601 30.656 85.4041 30.656H82.9151V23.8278H85.4041C87.529 23.8278 88.5936 24.945 88.5936 27.1817C88.5936 28.1765 88.329 29.0149 87.7892 29.7035Z" fill="#626572"/>
<path d="M88.5938 27.1817C88.5938 28.1764 88.3292 29.0149 87.7872 29.7034C87.2516 30.337 86.4581 30.656 85.4022 30.656H82.9131V23.8278H85.4022C87.5292 23.8278 88.5938 24.945 88.5938 27.1817Z" fill="#EB0C7B"/>
<path d="M103.772 23.5089H111.989V33.2031H104.5C103.21 33.2031 102.185 33.1102 101.421 32.9222C100.658 32.7343 99.9688 32.4048 99.3486 31.9317C97.5902 30.6095 96.71 28.3328 96.71 25.1035C96.71 22.9978 97.1284 21.2448 97.9675 19.8403C98.5876 18.8117 99.4332 18.062 100.504 17.5889C101.578 17.1115 102.97 16.875 104.678 16.875H111.991V19.7875H105.081C103.59 19.7875 102.51 20.1064 101.84 20.7421C101.036 21.4919 100.634 22.8394 100.634 24.7803C100.634 25.7751 100.738 26.6727 100.949 27.4732C101.159 28.2736 101.447 28.8692 101.816 29.26C102.135 29.619 102.573 29.8809 103.134 30.0435C103.696 30.2062 104.385 30.2885 105.207 30.2885H108.449V26.4214H103.774V23.5089H103.772Z" fill="#626572"/>
<path d="M126.362 25.9567C126.362 25.1245 126.191 24.5606 125.846 24.2671C125.503 23.9735 124.82 23.8256 123.797 23.8256H118.118V21.2806H123.797C124.818 21.2806 125.523 21.3018 125.909 21.3419C126.295 21.382 126.687 21.4602 127.09 21.5742C128.951 22.2606 129.829 23.8996 129.729 26.4952V33.201H122.643C121.371 33.201 120.49 33.1651 120.005 33.0911C119.519 33.0172 119.092 32.8673 118.723 32.6392C117.735 31.9865 117.24 30.9981 117.24 29.6781C117.24 28.8797 117.438 28.1638 117.83 27.5365C118.222 26.9092 118.747 26.4805 119.4 26.2524C119.97 26.0559 120.915 25.9588 122.24 25.9588H126.362V25.9567ZM126.362 28.5017H122.492H121.913C121.527 28.5017 121.221 28.5988 120.996 28.7953C120.77 28.9917 120.657 29.2599 120.657 29.6021C120.657 29.978 120.796 30.2462 121.071 30.4088C121.349 30.5715 121.822 30.6538 122.492 30.6538H126.362V28.5017Z" fill="#626572"/>
<path d="M162.129 28.527C162.129 29.3592 162.3 29.9231 162.645 30.2167C162.987 30.5102 163.67 30.6581 164.694 30.6581H171.014V33.201H164.694C163.673 33.201 162.968 33.1798 162.582 33.1397C162.196 33.0996 161.804 33.0214 161.4 32.9074C159.54 32.221 158.662 30.582 158.762 27.9863V23.6229C158.762 22.3282 159.839 21.2806 161.166 21.2806H165.847C167.12 21.2806 168 21.3165 168.486 21.3905C168.972 21.4644 169.399 21.6143 169.767 21.8424C170.756 22.4951 171.25 23.4835 171.25 24.8035C171.25 25.6019 171.053 26.3178 170.661 26.9451C170.268 27.5724 169.743 28.0011 169.091 28.2292C168.521 28.4256 167.575 28.5228 166.251 28.5228H162.129V28.527ZM162.129 25.9799H165.999H166.578C166.964 25.9799 167.27 25.8828 167.495 25.6863C167.721 25.4899 167.833 25.2217 167.833 24.8795C167.833 24.5036 167.695 24.2354 167.419 24.0727C167.142 23.9101 166.669 23.8278 165.999 23.8278H162.129V25.9799Z" fill="#626572"/>
<path d="M135.887 21.2806H148.25C149.373 21.2806 150.227 21.363 150.813 21.5256C151.398 21.6883 151.892 21.9755 152.296 22.3831C153.033 23.1667 153.401 24.2438 153.401 25.6145V33.201H150.034V26.1278C150.034 25.5575 150.008 25.1562 149.958 24.9281C149.908 24.7 149.791 24.4952 149.607 24.3156C149.256 23.9904 148.727 23.8256 148.024 23.8256H146.24V33.201H142.873V23.8278H139.254V33.201H135.887V21.2806Z" fill="#626572"/>
</g>
<defs>
<clipPath id="clip0">
<rect width="171.25" height="50" fill="white"/>
</clipPath>
</defs>
</svg>
