<svg width="172" height="50" viewBox="0 0 172 50" fill="none" xmlns="http://www.w3.org/2000/svg">
<g clip-path="url(#clip0)">
<path d="M17.5 42.5C27.165 42.5 35 34.665 35 25C35 15.335 27.165 7.5 17.5 7.5C7.83501 7.5 0 15.335 0 25C0 34.665 7.83501 42.5 17.5 42.5Z" fill="#171717"/>
<path d="M25.8801 15.9774C26.6553 15.9774 27.2837 15.349 27.2837 14.5739C27.2837 13.7987 26.6553 13.1703 25.8801 13.1703C25.105 13.1703 24.4766 13.7987 24.4766 14.5739C24.4766 15.349 25.105 15.9774 25.8801 15.9774Z" fill="#EB027D"/>
<path d="M23.0601 16.7389C23.692 16.7389 24.2043 16.2267 24.2043 15.5948C24.2043 14.9629 23.692 14.4507 23.0601 14.4507C22.4283 14.4507 21.916 14.9629 21.916 15.5948C21.916 16.2267 22.4283 16.7389 23.0601 16.7389Z" fill="#EB027D"/>
<path d="M13.9582 26.1399C14.2964 26.1399 14.5706 25.8656 14.5706 25.5274C14.5706 25.1891 14.2964 24.9149 13.9582 24.9149C13.6199 24.9149 13.3457 25.1891 13.3457 25.5274C13.3457 25.8656 13.6199 26.1399 13.9582 26.1399Z" fill="#EB027D"/>
<path d="M14.0914 27.7092C14.1 27.3452 13.8118 27.0432 13.4479 27.0347C13.0839 27.0261 12.7819 27.3142 12.7733 27.6782C12.7647 28.0422 13.0529 28.3442 13.4169 28.3528C13.7809 28.3613 14.0829 28.0732 14.0914 27.7092Z" fill="#EB027D"/>
<path d="M13.7488 23.0856C14.1505 23.0856 14.4761 22.76 14.4761 22.3583C14.4761 21.9566 14.1505 21.631 13.7488 21.631C13.3471 21.631 13.0215 21.9566 13.0215 22.3583C13.0215 22.76 13.3471 23.0856 13.7488 23.0856Z" fill="#EB027D"/>
<path d="M13.4083 21.2139C13.8852 21.2139 14.2717 20.8273 14.2717 20.3505C14.2717 19.8736 13.8852 19.4871 13.4083 19.4871C12.9315 19.4871 12.5449 19.8736 12.5449 20.3505C12.5449 20.8273 12.9315 21.2139 13.4083 21.2139Z" fill="#EB027D"/>
<path d="M14.5265 24.6298C14.8648 24.6298 15.139 24.3556 15.139 24.0174C15.139 23.6791 14.8648 23.4049 14.5265 23.4049C14.1883 23.4049 13.9141 23.6791 13.9141 24.0174C13.9141 24.3556 14.1883 24.6298 14.5265 24.6298Z" fill="#EB027D"/>
<path d="M15.6077 25.689C15.8872 25.689 16.1138 25.4624 16.1138 25.1829C16.1138 24.9034 15.8872 24.6768 15.6077 24.6768C15.3282 24.6768 15.1016 24.9034 15.1016 25.1829C15.1016 25.4624 15.3282 25.689 15.6077 25.689Z" fill="#EB027D"/>
<path d="M15.43 26.8885C15.7095 26.8885 15.9361 26.6619 15.9361 26.3824C15.9361 26.1028 15.7095 25.8762 15.43 25.8762C15.1504 25.8762 14.9238 26.1028 14.9238 26.3824C14.9238 26.6619 15.1504 26.8885 15.43 26.8885Z" fill="#EB027D"/>
<path d="M15.6418 22.9624C15.98 22.9624 16.2542 22.6882 16.2542 22.3499C16.2542 22.0116 15.98 21.7374 15.6418 21.7374C15.3035 21.7374 15.0293 22.0116 15.0293 22.3499C15.0293 22.6882 15.3035 22.9624 15.6418 22.9624Z" fill="#EB027D"/>
<path d="M16.055 24.196C16.3345 24.196 16.5611 23.9694 16.5611 23.6899C16.5611 23.4103 16.3345 23.1837 16.055 23.1837C15.7754 23.1837 15.5488 23.4103 15.5488 23.6899C15.5488 23.9694 15.7754 24.196 16.055 24.196Z" fill="#EB027D"/>
<path d="M16.7258 27.3395C16.9583 27.3395 17.1468 27.1509 17.1468 26.9184C17.1468 26.6858 16.9583 26.4973 16.7258 26.4973C16.4932 26.4973 16.3047 26.6858 16.3047 26.9184C16.3047 27.1509 16.4932 27.3395 16.7258 27.3395Z" fill="#EB027D"/>
<path d="M17.0471 28.0197C17.0525 27.7872 16.8684 27.5943 16.636 27.5889C16.4035 27.5834 16.2106 27.7675 16.2052 28C16.1997 28.2324 16.3838 28.4253 16.6163 28.4308C16.8487 28.4362 17.0416 28.2521 17.0471 28.0197Z" fill="#EB027D"/>
<path d="M16.8117 26.3484C17.0442 26.3484 17.2328 26.1598 17.2328 25.9273C17.2328 25.6947 17.0442 25.5062 16.8117 25.5062C16.5791 25.5062 16.3906 25.6947 16.3906 25.9273C16.3906 26.1598 16.5791 26.3484 16.8117 26.3484Z" fill="#EB027D"/>
<path d="M16.9523 25.2084C17.1849 25.2084 17.3734 25.0198 17.3734 24.7873C17.3734 24.5547 17.1849 24.3662 16.9523 24.3662C16.7198 24.3662 16.5312 24.5547 16.5312 24.7873C16.5312 25.0198 16.7198 25.2084 16.9523 25.2084Z" fill="#EB027D"/>
<path d="M17.1183 24.0896C17.3509 24.0896 17.5394 23.9011 17.5394 23.6685C17.5394 23.436 17.3509 23.2474 17.1183 23.2474C16.8858 23.2474 16.6973 23.436 16.6973 23.6685C16.6973 23.9011 16.8858 24.0896 17.1183 24.0896Z" fill="#EB027D"/>
<path d="M17.1995 22.856C17.479 22.856 17.7056 22.6294 17.7056 22.3499C17.7056 22.0704 17.479 21.8438 17.1995 21.8438C16.92 21.8438 16.6934 22.0704 16.6934 22.3499C16.6934 22.6294 16.92 22.856 17.1995 22.856Z" fill="#EB027D"/>
<path d="M19.2443 18.9127C19.7211 18.9127 20.1077 18.5262 20.1077 18.0493C20.1077 17.5725 19.7211 17.1859 19.2443 17.1859C18.7674 17.1859 18.3809 17.5725 18.3809 18.0493C18.3809 18.5262 18.7674 18.9127 19.2443 18.9127Z" fill="#EB027D"/>
<path d="M18.0457 20.1165C18.4473 20.1165 18.773 19.7909 18.773 19.3892C18.773 18.9875 18.4473 18.6619 18.0457 18.6619C17.644 18.6619 17.3184 18.9875 17.3184 19.3892C17.3184 19.7909 17.644 20.1165 18.0457 20.1165Z" fill="#EB027D"/>
<path d="M17.4543 21.4947C17.7925 21.4947 18.0667 21.2205 18.0667 20.8822C18.0667 20.544 17.7925 20.2698 17.4543 20.2698C17.116 20.2698 16.8418 20.544 16.8418 20.8822C16.8418 21.2205 17.116 21.4947 17.4543 21.4947Z" fill="#EB027D"/>
<path d="M15.9786 19.6571C16.4555 19.6571 16.8421 19.2706 16.8421 18.7937C16.8421 18.3169 16.4555 17.9303 15.9786 17.9303C15.5018 17.9303 15.1152 18.3169 15.1152 18.7937C15.1152 19.2706 15.5018 19.6571 15.9786 19.6571Z" fill="#EB027D"/>
<path d="M15.5476 21.3585C15.9493 21.3585 16.2749 21.0329 16.2749 20.6312C16.2749 20.2296 15.9493 19.9039 15.5476 19.9039C15.1459 19.9039 14.8203 20.2296 14.8203 20.6312C14.8203 21.0329 15.1459 21.3585 15.5476 21.3585Z" fill="#EB027D"/>
<path d="M15.7156 27.9708C15.7225 27.6725 15.4863 27.4252 15.1881 27.4183C14.8899 27.4113 14.6425 27.6475 14.6356 27.9457C14.6287 28.244 14.8648 28.4913 15.163 28.4982C15.4613 28.5052 15.7087 28.269 15.7156 27.9708Z" fill="#EB027D"/>
<path d="M20.9001 17.7088C21.4404 17.7088 21.8784 17.2708 21.8784 16.7306C21.8784 16.1903 21.4404 15.7523 20.9001 15.7523C20.3599 15.7523 19.9219 16.1903 19.9219 16.7306C19.9219 17.2708 20.3599 17.7088 20.9001 17.7088Z" fill="#EB027D"/>
<path d="M20.2962 13.7097C21.0713 13.7097 21.6997 13.0813 21.6997 12.3062C21.6997 11.531 21.0713 10.9026 20.2962 10.9026C19.521 10.9026 18.8926 11.531 18.8926 12.3062C18.8926 13.0813 19.521 13.7097 20.2962 13.7097Z" fill="#EB027D"/>
<path d="M18.2711 15.8201C18.903 15.8201 19.4152 15.3079 19.4152 14.676C19.4152 14.0441 18.903 13.5319 18.2711 13.5319C17.6392 13.5319 17.127 14.0441 17.127 14.676C17.127 15.3079 17.6392 15.8201 18.2711 15.8201Z" fill="#EB027D"/>
<path d="M16.8747 17.8067C17.415 17.8067 17.853 17.3687 17.853 16.8285C17.853 16.2882 17.415 15.8502 16.8747 15.8502C16.3345 15.8502 15.8965 16.2882 15.8965 16.8285C15.8965 17.3687 16.3345 17.8067 16.8747 17.8067Z" fill="#EB027D"/>
<path d="M15.1106 13.6885C15.8858 13.6885 16.5142 13.0601 16.5142 12.2849C16.5142 11.5097 15.8858 10.8813 15.1106 10.8813C14.3354 10.8813 13.707 11.5097 13.707 12.2849C13.707 13.0601 14.3354 13.6885 15.1106 13.6885Z" fill="#EB027D"/>
<path d="M14.0601 16.5475C14.692 16.5475 15.2043 16.0353 15.2043 15.4034C15.2043 14.7715 14.692 14.2593 14.0601 14.2593C13.4283 14.2593 12.916 14.7715 12.916 15.4034C12.916 16.0353 13.4283 16.5475 14.0601 16.5475Z" fill="#EB027D"/>
<path d="M13.5115 19.07C14.0517 19.07 14.4897 18.632 14.4897 18.0918C14.4897 17.5515 14.0517 17.1135 13.5115 17.1135C12.9712 17.1135 12.5332 17.5515 12.5332 18.0918C12.5332 18.632 12.9712 19.07 13.5115 19.07Z" fill="#EB027D"/>
<path d="M12.5203 24.953C12.922 24.953 13.2476 24.6274 13.2476 24.2257C13.2476 23.824 12.922 23.4984 12.5203 23.4984C12.1186 23.4984 11.793 23.824 11.793 24.2257C11.793 24.6274 12.1186 24.953 12.5203 24.953Z" fill="#EB027D"/>
<path d="M11.3361 23.2643C11.8129 23.2643 12.1995 22.8777 12.1995 22.4009C12.1995 21.924 11.8129 21.5375 11.3361 21.5375C10.8592 21.5375 10.4727 21.924 10.4727 22.4009C10.4727 22.8777 10.8592 23.2643 11.3361 23.2643Z" fill="#EB027D"/>
<path d="M10.6052 21.0523C11.1455 21.0523 11.5835 20.6143 11.5835 20.0741C11.5835 19.5338 11.1455 19.0958 10.6052 19.0958C10.0649 19.0958 9.62695 19.5338 9.62695 20.0741C9.62695 20.6143 10.0649 21.0523 10.6052 21.0523Z" fill="#EB027D"/>
<path d="M12.3606 26.9126C12.3705 26.4852 12.0321 26.1307 11.6047 26.1208C11.1773 26.1108 10.8228 26.4493 10.8129 26.8767C10.803 27.304 11.1414 27.6586 11.5688 27.6685C11.9962 27.6784 12.3507 27.34 12.3606 26.9126Z" fill="#EB027D"/>
<path d="M10.929 15.1054C11.7041 15.1054 12.3325 14.477 12.3325 13.7018C12.3325 12.9266 11.7041 12.2982 10.929 12.2982C10.1538 12.2982 9.52539 12.9266 9.52539 13.7018C9.52539 14.477 10.1538 15.1054 10.929 15.1054Z" fill="#EB027D"/>
<path d="M10.4176 18.3468C11.0494 18.3468 11.5617 17.8346 11.5617 17.2027C11.5617 16.5708 11.0494 16.0586 10.4176 16.0586C9.78568 16.0586 9.27344 16.5708 9.27344 17.2027C9.27344 17.8346 9.78568 18.3468 10.4176 18.3468Z" fill="#EB027D"/>
<path d="M8.38778 16.8603C8.40481 16.1323 7.82849 15.5284 7.10051 15.5113C6.37254 15.4943 5.76859 16.0706 5.75155 16.7986C5.73451 17.5266 6.31084 18.1305 7.03881 18.1476C7.76679 18.1646 8.37074 17.5883 8.38778 16.8603Z" fill="#EB027D"/>
<path d="M8.69351 20.4751C8.70763 19.8716 8.22984 19.3709 7.62633 19.3568C7.02282 19.3427 6.52212 19.8205 6.508 20.424C6.49387 21.0275 6.97167 21.5282 7.57518 21.5423C8.17869 21.5564 8.67939 21.0786 8.69351 20.4751Z" fill="#EB027D"/>
<path d="M9.53465 23.3254C9.54723 22.7877 9.12149 22.3415 8.58373 22.3289C8.04597 22.3163 7.59983 22.7421 7.58724 23.2798C7.57466 23.8176 8.00039 24.2637 8.53816 24.2763C9.07592 24.2889 9.52206 23.8632 9.53465 23.3254Z" fill="#EB027D"/>
<path d="M10.7676 25.4253C10.7789 24.9439 10.3978 24.5445 9.91636 24.5332C9.43496 24.5219 9.03557 24.903 9.02431 25.3844C9.01304 25.8659 9.39416 26.2652 9.87556 26.2765C10.357 26.2878 10.7563 25.9067 10.7676 25.4253Z" fill="#EB027D"/>
<path d="M14.7102 39.0966C15.4854 39.0966 16.1138 38.4682 16.1138 37.693C16.1138 36.9178 15.4854 36.2894 14.7102 36.2894C13.935 36.2894 13.3066 36.9178 13.3066 37.693C13.3066 38.4682 13.935 39.0966 14.7102 39.0966Z" fill="white"/>
<path d="M25.9727 24.6161C25.984 24.1347 25.6028 23.7353 25.1214 23.724C24.64 23.7127 24.2407 24.0938 24.2294 24.5752C24.2181 25.0566 24.5992 25.456 25.0806 25.4673C25.562 25.4786 25.9614 25.0975 25.9727 24.6161Z" fill="white"/>
<path d="M23.6681 28.4666C24.1449 28.4666 24.5315 28.08 24.5315 27.6032C24.5315 27.1263 24.1449 26.7397 23.6681 26.7397C23.1912 26.7397 22.8047 27.1263 22.8047 27.6032C22.8047 28.08 23.1912 28.4666 23.6681 28.4666Z" fill="white"/>
<path d="M24.1869 23.1245C24.1969 22.6972 23.8586 22.3426 23.4312 22.3326C23.0038 22.3226 22.6492 22.6609 22.6392 23.0883C22.6292 23.5157 22.9676 23.8703 23.395 23.8803C23.8223 23.8903 24.1769 23.5519 24.1869 23.1245Z" fill="white"/>
<path d="M24.4001 30.9082C24.9404 30.9082 25.3784 30.4702 25.3784 29.9299C25.3784 29.3896 24.9404 28.9517 24.4001 28.9517C23.8599 28.9517 23.4219 29.3896 23.4219 29.9299C23.4219 30.4702 23.8599 30.9082 24.4001 30.9082Z" fill="white"/>
<path d="M21.2566 28.3731C21.6583 28.3731 21.9839 28.0474 21.9839 27.6458C21.9839 27.2441 21.6583 26.9185 21.2566 26.9185C20.8549 26.9185 20.5293 27.2441 20.5293 27.6458C20.5293 28.0474 20.8549 28.3731 21.2566 28.3731Z" fill="white"/>
<path d="M21.5958 30.517C22.0727 30.517 22.4592 30.1304 22.4592 29.6536C22.4592 29.1767 22.0727 28.7902 21.5958 28.7902C21.119 28.7902 20.7324 29.1767 20.7324 29.6536C20.7324 30.1304 21.119 30.517 21.5958 30.517Z" fill="white"/>
<path d="M17.8011 28.1603C18.0806 28.1603 18.3072 27.9337 18.3072 27.6542C18.3072 27.3747 18.0806 27.1481 17.8011 27.1481C17.5215 27.1481 17.2949 27.3747 17.2949 27.6542C17.2949 27.9337 17.5215 28.1603 17.8011 28.1603Z" fill="white"/>
<path d="M17.8879 26.7567C18.1204 26.7567 18.3089 26.5682 18.3089 26.3356C18.3089 26.1031 18.1204 25.9146 17.8879 25.9146C17.6553 25.9146 17.4668 26.1031 17.4668 26.3356C17.4668 26.5682 17.6553 26.7567 17.8879 26.7567Z" fill="white"/>
<path d="M18.048 25.6376C18.2806 25.6376 18.4691 25.449 18.4691 25.2165C18.4691 24.9839 18.2806 24.7954 18.048 24.7954C17.8155 24.7954 17.627 24.9839 17.627 25.2165C17.627 25.449 17.8155 25.6376 18.048 25.6376Z" fill="white"/>
<path d="M18.2785 23.5067C18.511 23.5067 18.6996 23.3182 18.6996 23.0856C18.6996 22.8531 18.511 22.6646 18.2785 22.6646C18.0459 22.6646 17.8574 22.8531 17.8574 23.0856C17.8574 23.3182 18.0459 23.5067 18.2785 23.5067Z" fill="white"/>
<path d="M18.799 22.0066C18.8044 21.7741 18.6204 21.5812 18.3879 21.5758C18.1554 21.5704 17.9626 21.7544 17.9571 21.9869C17.9517 22.2194 18.1357 22.4122 18.3682 22.4177C18.6007 22.4231 18.7936 22.2391 18.799 22.0066Z" fill="white"/>
<path d="M18.1926 24.4977C18.4251 24.4977 18.6136 24.3091 18.6136 24.0766C18.6136 23.844 18.4251 23.6555 18.1926 23.6555C17.96 23.6555 17.7715 23.844 17.7715 24.0766C17.7715 24.3091 17.96 24.4977 18.1926 24.4977Z" fill="white"/>
<path d="M18.9417 26.812C19.2212 26.812 19.4478 26.5854 19.4478 26.3058C19.4478 26.0263 19.2212 25.7997 18.9417 25.7997C18.6622 25.7997 18.4355 26.0263 18.4355 26.3058C18.4355 26.5854 18.6622 26.812 18.9417 26.812Z" fill="white"/>
<path d="M19.3586 28.2667C19.6968 28.2667 19.971 27.9925 19.971 27.6542C19.971 27.316 19.6968 27.0417 19.3586 27.0417C19.0203 27.0417 18.7461 27.316 18.7461 27.6542C18.7461 27.9925 19.0203 28.2667 19.3586 28.2667Z" fill="white"/>
<path d="M19.3968 25.327C19.6763 25.327 19.9029 25.1004 19.9029 24.8208C19.9029 24.5413 19.6763 24.3147 19.3968 24.3147C19.1172 24.3147 18.8906 24.5413 18.8906 24.8208C18.8906 25.1004 19.1172 25.327 19.3968 25.327Z" fill="white"/>
<path d="M19.5725 24.1234C19.8521 24.1234 20.0787 23.8968 20.0787 23.6172C20.0787 23.3377 19.8521 23.1111 19.5725 23.1111C19.293 23.1111 19.0664 23.3377 19.0664 23.6172C19.0664 23.8968 19.293 24.1234 19.5725 24.1234Z" fill="white"/>
<path d="M20.3622 22.0566C20.3692 21.7583 20.133 21.5109 19.8348 21.5039C19.5366 21.497 19.2892 21.7331 19.2822 22.0313C19.2752 22.3295 19.5113 22.5769 19.8095 22.5839C20.1078 22.5909 20.3552 22.3548 20.3622 22.0566Z" fill="white"/>
<path d="M15.756 32.8182C16.2328 32.8182 16.6194 32.4317 16.6194 31.9548C16.6194 31.478 16.2328 31.0914 15.756 31.0914C15.2791 31.0914 14.8926 31.478 14.8926 31.9548C14.8926 32.4317 15.2791 32.8182 15.756 32.8182Z" fill="white"/>
<path d="M16.9597 31.3422C17.3614 31.3422 17.687 31.0166 17.687 30.6149C17.687 30.2132 17.3614 29.8876 16.9597 29.8876C16.558 29.8876 16.2324 30.2132 16.2324 30.6149C16.2324 31.0166 16.558 31.3422 16.9597 31.3422Z" fill="white"/>
<path d="M17.5519 29.7301C17.8902 29.7301 18.1644 29.4559 18.1644 29.1176C18.1644 28.7793 17.8902 28.5051 17.5519 28.5051C17.2137 28.5051 16.9395 28.7793 16.9395 29.1176C16.9395 29.4559 17.2137 29.7301 17.5519 29.7301Z" fill="white"/>
<path d="M19.0275 32.0737C19.5043 32.0737 19.8909 31.6872 19.8909 31.2103C19.8909 30.7335 19.5043 30.3469 19.0275 30.3469C18.5506 30.3469 18.1641 30.7335 18.1641 31.2103C18.1641 31.6872 18.5506 32.0737 19.0275 32.0737Z" fill="white"/>
<path d="M19.4519 30.1001C19.8536 30.1001 20.1792 29.7745 20.1792 29.3728C20.1792 28.9711 19.8536 28.6455 19.4519 28.6455C19.0502 28.6455 18.7246 28.9711 18.7246 29.3728C18.7246 29.7745 19.0502 30.1001 19.4519 30.1001Z" fill="white"/>
<path d="M20.4738 26.5992C20.8121 26.5992 21.0863 26.325 21.0863 25.9867C21.0863 25.6485 20.8121 25.3743 20.4738 25.3743C20.1355 25.3743 19.8613 25.6485 19.8613 25.9867C19.8613 26.325 20.1355 26.5992 20.4738 26.5992Z" fill="white"/>
<path d="M21.0441 25.0888C21.3824 25.0888 21.6566 24.8146 21.6566 24.4764C21.6566 24.1381 21.3824 23.8639 21.0441 23.8639C20.7059 23.8639 20.4316 24.1381 20.4316 24.4764C20.4316 24.8146 20.7059 25.0888 21.0441 25.0888Z" fill="white"/>
<path d="M22.2242 22.323C22.2328 21.959 21.9447 21.657 21.5807 21.6484C21.2167 21.6399 20.9147 21.928 20.9061 22.292C20.8976 22.656 21.1857 22.958 21.5497 22.9665C21.9137 22.9751 22.2157 22.687 22.2242 22.323Z" fill="white"/>
<path d="M9.12428 36.8336C9.89945 36.8336 10.5278 36.2052 10.5278 35.4301C10.5278 34.6549 9.89945 34.0265 9.12428 34.0265C8.3491 34.0265 7.7207 34.6549 7.7207 35.4301C7.7207 36.2052 8.3491 36.8336 9.12428 36.8336Z" fill="white"/>
<path d="M11.9449 35.5533C12.5768 35.5533 13.089 35.041 13.089 34.4091C13.089 33.7773 12.5768 33.265 11.9449 33.265C11.313 33.265 10.8008 33.7773 10.8008 34.4091C10.8008 35.041 11.313 35.5533 11.9449 35.5533Z" fill="white"/>
<path d="M14.1052 34.2474C14.6455 34.2474 15.0834 33.8094 15.0834 33.2691C15.0834 32.7289 14.6455 32.2909 14.1052 32.2909C13.5649 32.2909 13.127 32.7289 13.127 33.2691C13.127 33.8094 13.5649 34.2474 14.1052 34.2474Z" fill="white"/>
<path d="M16.734 36.4721C17.3659 36.4721 17.8781 35.9598 17.8781 35.328C17.8781 34.6961 17.3659 34.1838 16.734 34.1838C16.1021 34.1838 15.5898 34.6961 15.5898 35.328C15.5898 35.9598 16.1021 36.4721 16.734 36.4721Z" fill="white"/>
<path d="M18.1286 34.1539C18.6689 34.1539 19.1069 33.7159 19.1069 33.1756C19.1069 32.6354 18.6689 32.1974 18.1286 32.1974C17.5884 32.1974 17.1504 32.6354 17.1504 33.1756C17.1504 33.7159 17.5884 34.1539 18.1286 34.1539Z" fill="white"/>
<path d="M19.8899 39.1179C20.6651 39.1179 21.2935 38.4895 21.2935 37.7144C21.2935 36.9392 20.6651 36.3108 19.8899 36.3108C19.1147 36.3108 18.4863 36.9392 18.4863 37.7144C18.4863 38.4895 19.1147 39.1179 19.8899 39.1179Z" fill="white"/>
<path d="M20.9449 35.7448C21.5768 35.7448 22.089 35.2325 22.089 34.6007C22.089 33.9688 21.5768 33.4565 20.9449 33.4565C20.313 33.4565 19.8008 33.9688 19.8008 34.6007C19.8008 35.2325 20.313 35.7448 20.9449 35.7448Z" fill="white"/>
<path d="M21.4939 32.8905C22.0341 32.8905 22.4721 32.4525 22.4721 31.9122C22.4721 31.3719 22.0341 30.934 21.4939 30.934C20.9536 30.934 20.5156 31.3719 20.5156 31.9122C20.5156 32.4525 20.9536 32.8905 21.4939 32.8905Z" fill="white"/>
<path d="M22.4812 26.501C22.8829 26.501 23.2085 26.1754 23.2085 25.7737C23.2085 25.372 22.8829 25.0464 22.4812 25.0464C22.0795 25.0464 21.7539 25.372 21.7539 25.7737C21.7539 26.1754 22.0795 26.501 22.4812 26.501Z" fill="white"/>
<path d="M24.0754 37.7057C24.8506 37.7057 25.479 37.0773 25.479 36.3021C25.479 35.527 24.8506 34.8986 24.0754 34.8986C23.3003 34.8986 22.6719 35.527 22.6719 36.3021C22.6719 37.0773 23.3003 37.7057 24.0754 37.7057Z" fill="white"/>
<path d="M24.5816 33.9454C25.2135 33.9454 25.7257 33.4331 25.7257 32.8012C25.7257 32.1693 25.2135 31.6571 24.5816 31.6571C23.9497 31.6571 23.4375 32.1693 23.4375 32.8012C23.4375 33.4331 23.9497 33.9454 24.5816 33.9454Z" fill="white"/>
<path d="M27.4116 26.7224C27.4242 26.1846 26.9985 25.7385 26.4607 25.7259C25.9229 25.7133 25.4768 26.139 25.4642 26.6768C25.4516 27.2146 25.8773 27.6607 26.4151 27.6733C26.9529 27.6859 27.399 27.2602 27.4116 26.7224Z" fill="white"/>
<path d="M28.4923 29.5783C28.5065 28.9748 28.0287 28.4741 27.4252 28.4599C26.8216 28.4458 26.321 28.9236 26.3068 29.5271C26.2927 30.1306 26.7705 30.6313 27.374 30.6455C27.9775 30.6596 28.4782 30.1818 28.4923 29.5783Z" fill="white"/>
<path d="M29.2509 33.203C29.2679 32.4751 28.6915 31.8712 27.9635 31.8542C27.2356 31.8372 26.6317 32.4136 26.6147 33.1416C26.5977 33.8696 27.1741 34.4735 27.9021 34.4904C28.6301 34.5074 29.234 33.931 29.2509 33.203Z" fill="white"/>
<path d="M41.4034 33.201V30.2885H49.0679C50.2908 30.2885 51.1039 30.1745 51.505 29.9464C52.0904 29.6042 52.3853 29.0889 52.3853 28.4046C52.3853 27.6041 52.0427 27.0254 51.3554 26.6664C50.9694 26.4552 50.3493 26.3475 49.4951 26.3475H46.3794C44.4866 26.3475 43.1206 26.0138 42.2837 25.3443C41.7633 24.9197 41.3578 24.3896 41.0651 23.7539C40.7703 23.1161 40.625 22.4318 40.625 21.6968C40.625 20.5542 40.9676 19.5108 41.6549 18.5646C42.3249 17.6501 43.396 17.1115 44.8703 16.9489C45.3733 16.9003 46.1192 16.875 47.1079 16.875H55.4251V19.7875H47.9123C46.7892 19.8044 46.0433 19.853 45.6747 19.9353C44.9202 20.1149 44.5451 20.6703 44.5451 21.5996C44.5451 22.3832 44.8638 22.9049 45.4991 23.1667C45.9176 23.3632 46.6222 23.4603 47.6109 23.4603H50.2995C51.6719 23.4603 52.6953 23.5744 53.3653 23.8025C54.5556 24.1932 55.3752 24.8796 55.8284 25.8596C56.1796 26.6432 56.3552 27.4837 56.3552 28.3814C56.3552 29.3761 56.1211 30.2653 55.6506 31.0489C54.998 32.1577 54.0179 32.8272 52.7105 33.0553C52.0731 33.1524 51.1104 33.2031 49.8203 33.2031H41.4034V33.201Z" fill="black"/>
<path d="M69.874 30.656V21.2806H73.2412V33.201H66.6065C65.6525 33.201 64.9153 33.1313 64.395 32.9919C63.8746 32.8546 63.4149 32.6054 63.0138 32.2463C62.1596 31.4965 61.7324 30.28 61.7324 28.5988V21.2806H65.0736V28.9431C65.0736 29.4817 65.221 29.902 65.5137 30.204C65.8065 30.506 66.2054 30.656 66.7084 30.656H69.874Z" fill="black"/>
<path d="M91.5086 24.3389C91.0056 23.2322 90.1947 22.4085 89.0759 21.872C88.2541 21.4792 87.1874 21.2807 85.88 21.2807H82.916V16.8771H79.5488V33.2031H85.03C86.1336 33.2031 86.9901 33.1376 87.5907 33.0193C88.1912 32.8947 88.7767 32.6645 89.3512 32.3203C91.14 31.2452 92.0398 29.4986 92.0398 27.0782C92.0376 26.0855 91.862 25.171 91.5086 24.3389ZM87.7901 29.7035C87.2546 30.3371 86.461 30.656 85.4051 30.656H82.916V23.8278H85.4051C87.5299 23.8278 88.5945 24.945 88.5945 27.1817C88.5945 28.1765 88.33 29.0149 87.7901 29.7035Z" fill="black"/>
<path d="M88.5947 27.1817C88.5947 28.1764 88.3302 29.0149 87.7882 29.7034C87.2526 30.337 86.4591 30.656 85.4031 30.656H82.9141V23.8278H85.4031C87.5301 23.8278 88.5947 24.945 88.5947 27.1817Z" fill="#EB0C7B"/>
<path d="M103.771 23.5089H111.988V33.2031H104.499C103.209 33.2031 102.184 33.1102 101.42 32.9222C100.657 32.7343 99.9678 32.4048 99.3477 31.9317C97.5893 30.6095 96.709 28.3328 96.709 25.1035C96.709 22.9978 97.1274 21.2448 97.9665 19.8403C98.5866 18.8117 99.4322 18.062 100.503 17.5889C101.577 17.1115 102.969 16.875 104.677 16.875H111.99V19.7875H105.08C103.589 19.7875 102.509 20.1064 101.839 20.7421C101.035 21.4919 100.633 22.8394 100.633 24.7803C100.633 25.7751 100.737 26.6727 100.948 27.4732C101.158 28.2736 101.446 28.8692 101.815 29.26C102.134 29.619 102.572 29.8809 103.133 30.0435C103.695 30.2062 104.384 30.2885 105.206 30.2885H108.448V26.4214H103.773V23.5089H103.771Z" fill="black"/>
<path d="M126.362 25.9567C126.362 25.1245 126.191 24.5606 125.846 24.2671C125.503 23.9735 124.82 23.8256 123.797 23.8256H118.118V21.2806H123.797C124.818 21.2806 125.523 21.3018 125.909 21.3419C126.295 21.382 126.687 21.4602 127.09 21.5742C128.951 22.2606 129.829 23.8996 129.729 26.4952V33.201H122.643C121.371 33.201 120.49 33.1651 120.005 33.0911C119.519 33.0172 119.092 32.8673 118.723 32.6392C117.735 31.9865 117.24 30.9981 117.24 29.6781C117.24 28.8797 117.438 28.1638 117.83 27.5365C118.222 26.9092 118.747 26.4805 119.4 26.2524C119.97 26.0559 120.915 25.9588 122.24 25.9588H126.362V25.9567ZM126.362 28.5017H122.492H121.913C121.527 28.5017 121.221 28.5988 120.996 28.7953C120.77 28.9917 120.657 29.2599 120.657 29.6021C120.657 29.978 120.796 30.2462 121.071 30.4088C121.349 30.5715 121.822 30.6538 122.492 30.6538H126.362V28.5017Z" fill="black"/>
<path d="M162.129 28.527C162.129 29.3592 162.3 29.9231 162.645 30.2167C162.987 30.5102 163.67 30.6581 164.694 30.6581H171.014V33.201H164.694C163.673 33.201 162.968 33.1798 162.582 33.1397C162.196 33.0996 161.804 33.0214 161.4 32.9074C159.54 32.221 158.662 30.582 158.762 27.9863V23.6229C158.762 22.3282 159.839 21.2806 161.166 21.2806H165.847C167.12 21.2806 168 21.3165 168.486 21.3905C168.972 21.4644 169.399 21.6143 169.767 21.8424C170.756 22.4951 171.25 23.4835 171.25 24.8035C171.25 25.6019 171.053 26.3178 170.661 26.9451C170.268 27.5724 169.743 28.0011 169.091 28.2292C168.521 28.4256 167.575 28.5228 166.251 28.5228H162.129V28.527ZM162.129 25.9799H165.999H166.578C166.964 25.9799 167.27 25.8828 167.495 25.6863C167.721 25.4899 167.833 25.2217 167.833 24.8795C167.833 24.5036 167.695 24.2354 167.419 24.0727C167.142 23.9101 166.669 23.8278 165.999 23.8278H162.129V25.9799Z" fill="black"/>
<path d="M135.887 21.2806H148.25C149.373 21.2806 150.227 21.363 150.813 21.5256C151.398 21.6883 151.892 21.9755 152.296 22.3831C153.033 23.1667 153.401 24.2438 153.401 25.6145V33.201H150.034V26.1278C150.034 25.5575 150.008 25.1562 149.958 24.9281C149.908 24.7 149.791 24.4952 149.607 24.3156C149.256 23.9904 148.727 23.8256 148.024 23.8256H146.24V33.201H142.873V23.8278H139.254V33.201H135.887V21.2806Z" fill="black"/>
</g>
<defs>
<clipPath id="clip0">
<rect width="171.25" height="50" fill="white"/>
</clipPath>
</defs>
</svg>
